<svg width="667" height="667" viewBox="0 0 667 667" fill="none" xmlns="http://www.w3.org/2000/svg">
<g clip-path="url(#clip0_572_18)">
<path d="M147.715 548.446H74.2462C72.9555 548.446 71.9102 547.399 71.9102 546.109V544.825C71.9102 543.534 72.9555 542.487 74.2462 542.487H147.715C149.006 542.487 150.053 543.534 150.053 544.825V546.109C150.053 547.399 149.006 548.446 147.715 548.446Z" fill="#ADBEC4"/>
<path d="M613.254 548.446H593.153C591.862 548.446 590.815 547.399 590.815 546.109V544.825C590.815 543.534 591.862 542.487 593.153 542.487H613.254C614.545 542.487 615.591 543.534 615.591 544.825V546.109C615.591 547.399 614.545 548.446 613.254 548.446Z" fill="#ADBEC4"/>
<path d="M285.976 548.446H212.507C211.216 548.446 210.171 547.399 210.171 546.109V544.825C210.171 543.534 211.216 542.487 212.507 542.487H285.976C287.267 542.487 288.314 543.534 288.314 544.825V546.109C288.314 547.399 287.267 548.446 285.976 548.446Z" fill="#ADBEC4"/>
<path d="M393.853 548.446H320.385C319.095 548.446 318.048 547.399 318.048 546.109V544.825C318.048 543.534 319.095 542.487 320.385 542.487H393.853C395.144 542.487 396.191 543.534 396.191 544.825V546.109C396.191 547.399 395.144 548.446 393.853 548.446Z" fill="#ADBEC4"/>
<path d="M525.972 548.446H425.82C424.529 548.446 423.482 547.399 423.482 546.109V544.825C423.482 543.534 424.529 542.487 425.82 542.487H525.972C527.262 542.487 528.309 543.534 528.309 544.825V546.109C528.309 547.399 527.262 548.446 525.972 548.446Z" fill="#ADBEC4"/>
<path d="M172.341 214.75C172.341 214.75 164.581 209.471 153.232 213.536C141.882 217.603 139.334 232.888 142.13 245.291C144.925 257.695 129.3 300.044 129.3 300.044C129.3 300.044 137.421 311.466 165.805 307.094C165.805 307.094 186.969 268.632 185.397 241.02C183.826 213.41 172.341 214.75 172.341 214.75Z" fill="#0E3944"/>
<path d="M181.301 262.461C191.967 259.051 198.495 267.932 204.607 284.463C210.718 300.993 212.774 302.651 212.774 302.651L236.365 317.808L234.405 326.641C234.405 326.641 211.953 317.851 206.525 312.259C201.097 306.668 185.481 278.345 185.481 278.345L181.301 262.461Z" fill="#EF6E4B"/>
<path d="M129.311 369.254C129.311 369.254 124.683 392.693 125.446 427.974C125.446 427.974 107.208 454.868 122.259 531.598H130.154C130.154 531.598 136.604 466.316 141.539 448.625C146.472 430.936 164.695 425.508 165.682 371.721L129.311 369.254Z" fill="#FF8B66"/>
<path d="M93.2298 438.174C88.6418 423.056 76.8511 397.734 46.6044 363.412C46.6044 363.412 44.8004 362.482 42.3618 363.972C39.7871 365.545 39.7871 367.394 39.7871 367.394C39.7871 367.394 54.9538 400.448 64.6258 424.665C67.8818 432.818 75.7591 438.174 84.5378 438.174H93.2298Z" fill="#FF8B66"/>
<path d="M148.298 467.408C148.298 467.408 148.402 478.688 141 478.88C130.548 479.162 130.163 467.779 118.32 468.148C106.478 468.519 82.0524 471.479 74.2804 452.975C70.2684 443.412 75.7618 431.14 62.8084 421.888C49.8551 412.636 56.1471 402.274 62.8084 396.722C69.4698 391.186 59.9364 385.116 66.8791 382.288C68.5364 381.623 70.1658 381.696 71.6751 382.2C72.5631 382.511 73.3924 382.94 74.1924 383.472C77.8631 385.915 80.4391 390.164 80.4391 390.164C100.054 336.443 134.975 329.352 134.975 329.352L169.511 341.268C170.34 424.848 148.298 467.408 148.298 467.408Z" fill="#164353"/>
<path d="M181.301 262.461C181.301 262.461 173.244 265.18 161.782 263.439C150.322 261.699 146.596 254.504 138.54 259.135C126.445 266.088 132.105 290.021 135.142 302.465C136.274 307.104 137.709 319.293 134.977 329.353C134.977 329.353 151.081 341.884 169.513 341.261L179.569 319.391C179.569 319.391 201.438 293.224 181.301 262.461Z" fill="#CFD8DC"/>
<path d="M160.836 242.387C160.836 242.387 162.176 253.708 157.988 264.008C157.988 264.008 163.968 272.836 169.675 267.027C169.675 267.027 170.196 256.651 176.607 244.912C180.899 237.051 160.836 242.387 160.836 242.387Z" fill="#EF6E4B"/>
<path d="M151.673 242.772C151.673 242.772 146.629 239.581 147.198 244.504C147.858 250.208 153.421 251.32 154.014 249.325C154.606 247.332 151.673 242.772 151.673 242.772Z" fill="#FF8B66"/>
<path d="M180.61 236.597C180.61 236.597 183.811 231.559 185.396 236.255C187.232 241.697 182.674 245.074 181.287 243.523C179.902 241.973 180.61 236.597 180.61 236.597Z" fill="#FF8B66"/>
<path d="M170.194 259.821C161.046 261.869 154.545 257.05 150.532 239.128C148.461 229.882 151.896 223.158 162.142 220.864C172.389 218.57 177.974 223.273 180.045 232.518C184.357 251.777 179.645 257.705 170.194 259.821Z" fill="#FF8B66"/>
<path d="M178.446 239.59C178.813 240.474 178.214 241.56 177.109 242.019C176.003 242.476 174.81 242.132 174.445 241.248C174.078 240.364 174.677 239.276 175.782 238.819C176.887 238.36 178.079 238.706 178.446 239.59Z" fill="#DB614D"/>
<path d="M159.741 244.304C159.889 245.249 159.05 246.165 157.869 246.349C156.688 246.534 155.609 245.918 155.461 244.973C155.314 244.028 156.152 243.112 157.333 242.928C158.516 242.742 159.593 243.358 159.741 244.304Z" fill="#DB614D"/>
<path d="M172.076 231.238C171.987 231.238 171.897 231.213 171.816 231.16C170.253 230.116 168.036 230.67 168.012 230.676C167.757 230.742 167.507 230.589 167.441 230.338C167.377 230.088 167.528 229.832 167.779 229.768C167.885 229.741 170.427 229.105 172.337 230.381C172.552 230.524 172.611 230.814 172.467 231.03C172.376 231.165 172.228 231.238 172.076 231.238Z" fill="#0E3944"/>
<path d="M154.851 235.095C154.769 235.095 154.685 235.074 154.611 235.029C154.388 234.895 154.316 234.607 154.451 234.386C155.633 232.418 158.204 231.909 158.313 231.887C158.563 231.847 158.811 232.005 158.86 232.259C158.909 232.514 158.743 232.758 158.489 232.807C158.467 232.813 156.217 233.265 155.252 234.869C155.165 235.014 155.009 235.095 154.851 235.095Z" fill="#0E3944"/>
<path d="M172.477 236.258C172.73 237.394 172.425 238.43 171.794 238.57C171.164 238.711 170.445 237.906 170.19 236.77C169.936 235.634 170.242 234.598 170.873 234.457C171.504 234.315 172.222 235.122 172.477 236.258Z" fill="#1A4850"/>
<path d="M159.766 238.994C160.02 240.13 159.715 241.166 159.083 241.306C158.452 241.447 157.735 240.642 157.48 239.506C157.226 238.37 157.531 237.334 158.163 237.192C158.794 237.051 159.511 237.858 159.766 238.994Z" fill="#1A4850"/>
<path d="M163.876 249.753C163.876 249.753 169.752 249.274 172.341 247.088C172.341 247.088 171.628 251.678 168.432 251.997C165.235 252.316 163.876 249.753 163.876 249.753Z" fill="#1A4850"/>
<path d="M169.275 236.383C169.275 236.383 169.482 233.397 170.626 233.352C171.77 233.307 173.14 235.517 173.14 235.517L174.571 234.293L172.995 234.869C172.995 234.869 171.59 232.559 170.502 232.797C168.952 233.136 169.275 236.383 169.275 236.383Z" fill="#1A4850"/>
<path d="M160.468 238.714C160.468 238.714 159.008 236.102 157.954 236.549C156.9 236.995 156.603 239.579 156.603 239.579L154.787 239.082L156.458 238.931C156.458 238.931 156.744 236.242 157.83 235.994C159.376 235.641 160.468 238.714 160.468 238.714Z" fill="#1A4850"/>
<path d="M166.84 244.453L166.37 243.56C167.131 243.158 167.195 242.616 167.116 242.234C167.003 241.693 166.563 241.264 166.244 241.238C166.062 241.229 165.904 241.385 165.782 241.71L164.835 241.358C165.24 240.268 166.008 240.209 166.322 240.23C167.126 240.292 167.908 241.081 168.106 242.028C168.312 243.02 167.839 243.926 166.84 244.453Z" fill="#DB614D"/>
<path d="M152.397 245.998C152.397 245.998 149.576 235.617 151.251 228.275C151.251 228.275 159.209 217.194 174.571 222.673C174.571 222.673 179.125 230.009 181.384 240.274C181.384 240.274 181.957 236.586 180.428 228.373C178.9 220.161 171.613 215.057 161.621 216.701C151.629 218.343 140.936 228.285 152.397 245.998Z" fill="#0E3944"/>
<path d="M168.504 220.368C168.504 220.368 169.113 223.078 166.477 230.055C166.477 230.055 164.581 228.074 162.361 230.055C160.141 232.036 155.632 231.375 154.093 232.446C152.555 233.518 152.555 235.966 152.555 235.966C152.555 235.966 151.221 232.918 152.555 229.262C152.555 229.262 149.557 233.07 149.956 237.772C149.956 237.772 145.893 237.116 146.077 230.412C146.263 223.71 155.791 212.867 166.477 213.57C177.165 214.272 179.709 231.195 179.709 231.195C179.709 231.195 178.735 230.43 177.209 230.77C177.209 230.77 176.973 227.186 174.571 222.672C174.571 222.672 175.679 225.931 174.571 229.446C174.571 229.446 171.593 227.884 169.247 228.374C169.247 228.374 170.696 225.538 168.504 220.368Z" fill="#0E3944"/>
<path d="M135.827 261.274C141.028 257.172 145.079 262.39 146.071 269.603C147.064 276.818 137.659 319.378 130.404 317.808C127.606 317.202 126.463 306.054 126.463 306.054C126.463 306.054 129.3 294.088 131.136 276.078C131.98 267.8 133.114 263.412 135.827 261.274Z" fill="#FF8B66"/>
<path d="M120.692 311.793C113.69 305.118 101.134 282.978 97.9443 271.7L103.259 269.561C103.259 269.561 119.262 292.454 126.556 298.228C133.851 304 136.418 310.429 133.159 315.934C129.9 321.44 122.166 313.197 120.692 311.793Z" fill="#FF8B66"/>
<path d="M100.127 256.931C99.7607 264.171 105.661 265.887 103.043 271.444C102.503 272.592 101.681 273.201 100.826 273.504C99.2061 274.077 97.4034 273.535 96.1941 272.313C93.3901 269.477 89.0527 266.475 86.7447 265.157C84.1207 263.643 85.6074 263.231 85.6074 263.231C85.3527 263.111 85.1047 263.011 84.8581 262.911C82.9847 262.127 81.4887 261.831 82.8461 260.997C84.3741 260.048 89.7901 262.027 89.7901 262.027C82.7407 257.332 80.8274 258.476 82.1154 257.479C83.8714 256.113 90.5727 259.253 90.7741 259.348C87.0487 255.827 84.3487 255.029 85.8261 254.497C87.3234 253.96 94.6927 259.296 97.3821 261.3C97.9887 261.749 98.3594 262.039 98.3594 262.039C98.2674 256.12 100.127 256.931 100.127 256.931Z" fill="#FF8B66"/>
<path d="M97.382 261.299C97.9886 261.749 98.3593 262.038 98.3593 262.038C98.3593 262.038 97.098 264.161 98.7313 266.91C98.7313 266.91 95.7326 264.941 97.382 261.299Z" fill="#EF6E4B"/>
<path d="M91.2014 265.457C90.5774 265.114 87.0214 263.112 85.6068 263.23C85.3521 263.11 85.1041 263.01 84.8574 262.91C85.8081 261.657 90.4934 264.944 91.2014 265.457Z" fill="#EF6E4B"/>
<path d="M119.153 372.891C119.153 373.677 118.516 374.313 117.731 374.313C116.944 374.313 116.307 373.677 116.307 372.891C116.307 372.105 116.944 371.468 117.731 371.468C118.516 371.468 119.153 372.105 119.153 372.891Z" fill="#6097B2"/>
<path d="M144.54 382.684C144.54 383.47 143.903 384.107 143.117 384.107C142.331 384.107 141.693 383.47 141.693 382.684C141.693 381.898 142.331 381.262 143.117 381.262C143.903 381.262 144.54 381.898 144.54 382.684Z" fill="#6097B2"/>
<path d="M166.172 387.936C166.172 388.723 165.535 389.359 164.749 389.359C163.963 389.359 163.325 388.723 163.325 387.936C163.325 387.151 163.963 386.514 164.749 386.514C165.535 386.514 166.172 387.151 166.172 387.936Z" fill="#6097B2"/>
<path d="M132.935 354.31C132.935 355.095 132.297 355.732 131.512 355.732C130.725 355.732 130.088 355.095 130.088 354.31C130.088 353.523 130.725 352.887 131.512 352.887C132.297 352.887 132.935 353.523 132.935 354.31Z" fill="#6097B2"/>
<path d="M137.727 367.831C137.727 368.617 137.089 369.254 136.304 369.254C135.517 369.254 134.88 368.617 134.88 367.831C134.88 367.045 135.517 366.409 136.304 366.409C137.089 366.409 137.727 367.045 137.727 367.831Z" fill="#6097B2"/>
<path d="M160.237 375.538C160.237 376.324 159.6 376.961 158.815 376.961C158.028 376.961 157.391 376.324 157.391 375.538C157.391 374.753 158.028 374.116 158.815 374.116C159.6 374.116 160.237 374.753 160.237 375.538Z" fill="#6097B2"/>
<path d="M163.326 352.214C163.326 353 162.689 353.636 161.903 353.636C161.117 353.636 160.479 353 160.479 352.214C160.479 351.428 161.117 350.791 161.903 350.791C162.689 350.791 163.326 351.428 163.326 352.214Z" fill="#6097B2"/>
<path d="M148.576 347.359C148.576 348.145 147.939 348.782 147.153 348.782C146.367 348.782 145.729 348.145 145.729 347.359C145.729 346.573 146.367 345.937 147.153 345.937C147.939 345.937 148.576 346.573 148.576 347.359Z" fill="#6097B2"/>
<path d="M106.562 400.65C106.562 401.436 105.924 402.072 105.139 402.072C104.352 402.072 103.715 401.436 103.715 400.65C103.715 399.864 104.352 399.227 105.139 399.227C105.924 399.227 106.562 399.864 106.562 400.65Z" fill="#6097B2"/>
<path d="M86.2803 394.599C86.2803 395.386 85.6429 396.022 84.8576 396.022C84.0709 396.022 83.4336 395.386 83.4336 394.599C83.4336 393.814 84.0709 393.176 84.8576 393.176C85.6429 393.176 86.2803 393.814 86.2803 394.599Z" fill="#6097B2"/>
<path d="M74.1923 383.473C73.9403 383.858 73.4963 384.109 72.9936 384.109C72.2083 384.109 71.5723 383.473 71.5723 382.688C71.5723 382.51 71.6016 382.348 71.6763 382.2C72.5643 382.51 73.3923 382.94 74.1923 383.473Z" fill="#6097B2"/>
<path d="M113.828 419.208C113.828 419.994 113.191 420.631 112.405 420.631C111.619 420.631 110.981 419.994 110.981 419.208C110.981 418.422 111.619 417.786 112.405 417.786C113.191 417.786 113.828 418.422 113.828 419.208Z" fill="#6097B2"/>
<path d="M77.4287 439.378C77.4287 440.163 76.7914 440.801 76.006 440.801C75.2194 440.801 74.582 440.163 74.582 439.378C74.582 438.593 75.2194 437.955 76.006 437.955C76.7914 437.955 77.4287 438.593 77.4287 439.378Z" fill="#6097B2"/>
<path d="M92.2988 427.152C92.2988 427.937 91.6615 428.574 90.8761 428.574C90.0895 428.574 89.4521 427.937 89.4521 427.152C89.4521 426.365 90.0895 425.729 90.8761 425.729C91.6615 425.729 92.2988 426.365 92.2988 427.152Z" fill="#6097B2"/>
<path d="M70.1533 416.335C70.1533 417.12 69.516 417.757 68.7306 417.757C67.944 417.757 67.3066 417.12 67.3066 416.335C67.3066 415.548 67.944 414.912 68.7306 414.912C69.516 414.912 70.1533 415.548 70.1533 416.335Z" fill="#6097B2"/>
<path d="M88.0293 458.931C88.0293 459.718 87.392 460.354 86.6066 460.354C85.82 460.354 85.1826 459.718 85.1826 458.931C85.1826 458.146 85.82 457.508 86.6066 457.508C87.392 457.508 88.0293 458.146 88.0293 458.931Z" fill="#6097B2"/>
<path d="M101.578 384.107C101.578 384.893 100.941 385.53 100.155 385.53C99.3688 385.53 98.7314 384.893 98.7314 384.107C98.7314 383.321 99.3688 382.685 100.155 382.685C100.941 382.685 101.578 383.321 101.578 384.107Z" fill="#6097B2"/>
<path d="M115.251 360.142C115.251 360.927 114.614 361.564 113.828 361.564C113.042 361.564 112.404 360.927 112.404 360.142C112.404 359.355 113.042 358.719 113.828 358.719C114.614 358.719 115.251 359.355 115.251 360.142Z" fill="#6097B2"/>
<path d="M130.724 340.195C130.724 340.981 130.086 341.618 129.301 341.618C128.514 341.618 127.877 340.981 127.877 340.195C127.877 339.409 128.514 338.773 129.301 338.773C130.086 338.773 130.724 339.409 130.724 340.195Z" fill="#6097B2"/>
<path d="M99.3672 369.254C99.3672 370.04 98.7298 370.677 97.9445 370.677C97.1578 370.677 96.5205 370.04 96.5205 369.254C96.5205 368.468 97.1578 367.832 97.9445 367.832C98.7298 367.832 99.3672 368.468 99.3672 369.254Z" fill="#6097B2"/>
<path d="M116.674 345.936C116.674 346.723 116.036 347.359 115.251 347.359C114.464 347.359 113.827 346.723 113.827 345.936C113.827 345.151 114.464 344.514 115.251 344.514C116.036 344.514 116.674 345.151 116.674 345.936Z" fill="#6097B2"/>
<path d="M89.4521 410.013C89.4521 410.8 88.8148 411.436 88.0295 411.436C87.2428 411.436 86.6055 410.8 86.6055 410.013C86.6055 409.228 87.2428 408.591 88.0295 408.591C88.8148 408.591 89.4521 409.228 89.4521 410.013Z" fill="#6097B2"/>
<path d="M71.5762 397.445C71.5762 398.231 70.9388 398.868 70.1535 398.868C69.3668 398.868 68.7295 398.231 68.7295 397.445C68.7295 396.659 69.3668 396.023 70.1535 396.023C70.9388 396.023 71.5762 396.659 71.5762 397.445Z" fill="#6097B2"/>
<path d="M123.423 393.176C123.423 393.962 122.786 394.598 122 394.598C121.214 394.598 120.576 393.962 120.576 393.176C120.576 392.39 121.214 391.753 122 391.753C122.786 391.753 123.423 392.39 123.423 393.176Z" fill="#6097B2"/>
<path d="M152.846 400.65C152.846 401.436 152.208 402.072 151.423 402.072C150.636 402.072 149.999 401.436 149.999 400.65C149.999 399.864 150.636 399.227 151.423 399.227C152.208 399.227 152.846 399.864 152.846 400.65Z" fill="#6097B2"/>
<path d="M151.423 360.142C151.423 360.927 150.786 361.564 150 361.564C149.214 361.564 148.576 360.927 148.576 360.142C148.576 359.355 149.214 358.719 150 358.719C150.786 358.719 151.423 359.355 151.423 360.142Z" fill="#6097B2"/>
<path d="M168.528 363.125C168.528 363.911 167.891 364.548 167.106 364.548C166.319 364.548 165.682 363.911 165.682 363.125C165.682 362.339 166.319 361.703 167.106 361.703C167.891 361.703 168.528 362.339 168.528 363.125Z" fill="#6097B2"/>
<path d="M134.357 411.437C134.357 412.222 133.72 412.859 132.935 412.859C132.148 412.859 131.511 412.222 131.511 411.437C131.511 410.65 132.148 410.014 132.935 410.014C133.72 410.014 134.357 410.65 134.357 411.437Z" fill="#6097B2"/>
<path d="M122 436.751C122 437.536 121.363 438.174 120.577 438.174C119.791 438.174 119.153 437.536 119.153 436.751C119.153 435.966 119.791 435.328 120.577 435.328C121.363 435.328 122 435.966 122 436.751Z" fill="#6097B2"/>
<path d="M100.155 440.801C100.155 441.588 99.5179 442.224 98.7326 442.224C97.9459 442.224 97.3086 441.588 97.3086 440.801C97.3086 440.016 97.9459 439.379 98.7326 439.379C99.5179 439.379 100.155 440.016 100.155 440.801Z" fill="#6097B2"/>
<path d="M160.237 419.208C160.237 419.994 159.6 420.631 158.815 420.631C158.028 420.631 157.391 419.994 157.391 419.208C157.391 418.422 158.028 417.786 158.815 417.786C159.6 417.786 160.237 418.422 160.237 419.208Z" fill="#6097B2"/>
<path d="M140.573 429.998C140.573 430.785 139.936 431.421 139.151 431.421C138.364 431.421 137.727 430.785 137.727 429.998C137.727 429.213 138.364 428.575 139.151 428.575C139.936 428.575 140.573 429.213 140.573 429.998Z" fill="#6097B2"/>
<path d="M110.981 461.777C110.981 462.564 110.344 463.2 109.559 463.2C108.772 463.2 108.135 462.564 108.135 461.777C108.135 460.992 108.772 460.354 109.559 460.354C110.344 460.354 110.981 460.992 110.981 461.777Z" fill="#6097B2"/>
<path d="M132.935 454.367C132.935 455.153 132.297 455.789 131.512 455.789C130.725 455.789 130.088 455.153 130.088 454.367C130.088 453.581 130.725 452.944 131.512 452.944C132.297 452.944 132.935 453.581 132.935 454.367Z" fill="#6097B2"/>
<path d="M154.083 445.983C154.083 446.769 153.446 447.405 152.66 447.405C151.874 447.405 151.236 446.769 151.236 445.983C151.236 445.197 151.874 444.56 152.66 444.56C153.446 444.56 154.083 445.197 154.083 445.983Z" fill="#6097B2"/>
<path d="M144.54 470.465C144.54 471.252 143.903 471.888 143.117 471.888C142.331 471.888 141.693 471.252 141.693 470.465C141.693 469.68 142.331 469.043 143.117 469.043C143.903 469.043 144.54 469.68 144.54 470.465Z" fill="#6097B2"/>
<path d="M142.984 545.407H119.609C118.085 541.055 120.897 536.689 120.424 532.854C119.609 526.37 123.384 529.953 123.384 529.953C124.05 522.981 133.85 521.662 133.746 524.771C133.584 529.346 134.472 532.173 135.774 534.067C138.409 537.873 142.732 537.843 143.472 540.566C143.546 540.833 143.605 541.099 143.65 541.337C144.376 544.741 142.984 545.407 142.984 545.407Z" fill="#164353"/>
<path d="M143.65 541.337C138.809 542.462 127.647 540.997 127.203 538.183C126.774 535.459 132.785 534.186 135.774 534.069C138.41 537.873 142.733 537.843 143.473 540.567C143.546 540.833 143.606 541.099 143.65 541.337Z" fill="#205260"/>
<path d="M46.8947 364.347C44.4081 362.082 40.3667 365.827 40.3667 365.827C40.3667 365.827 42.5427 369.055 41.1361 370.358C39.7294 371.66 38.1014 368.684 35.3334 369.987C35.1107 370.091 34.8747 370.224 34.6521 370.372C32.4907 371.66 30.2414 374.368 28.4201 376.427C28.0507 376.842 27.6947 377.226 27.3694 377.567C25.2521 379.787 19.7894 381.09 18.7681 375.168C17.7467 369.247 24.4081 362.304 31.7214 355.924C39.0347 349.544 43.7561 353.334 43.7561 353.334C43.7561 353.334 45.4147 356.012 45.4147 357.686C45.4147 359.343 46.8947 360.172 47.7241 361.756C48.5521 363.326 46.8947 364.347 46.8947 364.347Z" fill="#164353"/>
<path d="M34.6524 370.372C32.4911 371.66 30.2404 374.369 28.4204 376.427C25.6818 377.077 23.2244 376.885 22.8391 374.309C21.9071 368.092 34.3124 360.187 33.3204 364.555C32.8164 366.745 33.6751 368.832 34.6524 370.372Z" fill="#205260"/>
<path d="M467.495 535.3C466.342 534.694 465.28 533.364 464.326 531.681C464.326 531.68 463.504 526.704 464.326 521.476C465.148 516.246 462.871 511.977 455.47 510.373C448.274 508.813 444.004 512.281 445.666 526.748C445.666 526.749 445.667 526.75 445.667 526.753C444.572 532.762 444.346 539.625 446.842 545.408H468.992C468.992 545.408 472.486 537.92 467.495 535.3Z" fill="#CFD8DC"/>
<path d="M486.926 457.327C486.926 457.327 486.926 471.761 478.785 486.565C470.493 501.638 460.243 522.327 460.243 522.327C460.243 522.327 453.414 528.99 449.075 517.954C449.075 517.954 452.138 479.533 459.17 465.469C466.201 451.406 486.926 457.327 486.926 457.327Z" fill="#FF8B66"/>
<path d="M593.14 410.326C593.14 410.326 606.334 465.806 614.726 480.441C614.726 480.441 612.794 486.564 603.707 488.414C603.707 488.414 575.006 446.225 573.156 428.461C571.306 410.696 593.14 410.326 593.14 410.326Z" fill="#FF8B66"/>
<path d="M599.521 423.368C596.013 431.822 568.908 432.28 568.908 432.28L566.836 429.231L566.288 428.431L562.053 422.184C562.053 422.184 517.14 378.13 508.392 381.83H508.377C508.125 381.948 507.873 382.082 507.636 382.259C501.627 386.552 501.064 410.075 493.959 449.555C493.277 453.3 491.768 457.668 490.628 460.688C490.495 461.014 490.376 461.324 490.257 461.62C489.607 463.294 489.147 464.359 489.147 464.359C461.731 475.462 452.687 453.523 452.687 453.523C452.687 453.523 453.012 452.887 453.485 451.864C453.589 451.643 453.708 451.391 453.827 451.124C455.263 447.956 457.556 442.464 457.527 439.563C457.497 436.38 457.468 433.316 457.453 430.37C457.453 430.104 457.453 429.852 457.439 429.6C457.393 420.111 457.408 411.866 457.468 404.702V403.947C457.497 400.823 457.541 397.907 457.601 395.183V394.412C457.837 381.934 458.237 373.599 458.667 368.048C458.681 367.796 458.712 367.53 458.727 367.292C459.481 357.952 460.28 357.034 460.28 357.034L454.788 318.856H514.712C514.712 318.856 523.713 327.871 535.393 339.774C535.644 340.011 535.881 340.247 536.119 340.499C540.352 344.807 544.927 349.484 549.516 354.236C549.708 354.428 549.885 354.607 550.048 354.784C551.855 356.65 553.66 358.515 555.452 360.364C555.673 360.587 555.881 360.824 556.103 361.046C562.113 367.278 567.945 373.422 572.935 378.795C573.112 378.974 573.275 379.151 573.437 379.328C580.263 386.715 585.459 392.622 587.249 395.375C592.001 402.643 595.701 412.103 597.745 417.95V417.966C597.848 418.231 597.937 418.468 598.027 418.72C598.988 421.563 599.521 423.368 599.521 423.368Z" fill="#8B383E"/>
<path d="M469.251 362.748C466.808 365.635 463.255 367.411 458.667 368.048C458.682 367.796 458.711 367.53 458.726 367.292C463.048 366.671 466.394 364.983 468.688 362.26C472.804 357.404 472.138 350.847 472.123 350.787L472.863 350.698C472.892 350.979 473.574 357.642 469.251 362.748Z" fill="#662C33"/>
<path d="M536.118 340.499C535.881 340.513 535.659 340.528 535.422 340.528C528.761 340.528 521.803 333.245 521.447 332.875L521.981 332.356C522.07 332.46 528.998 339.715 535.393 339.773C535.645 340.011 535.881 340.247 536.118 340.499Z" fill="#662C33"/>
<path d="M490.627 460.688C490.493 461.013 490.375 461.324 490.256 461.62C485.816 463.249 481.744 463.914 478.029 463.914C466.187 463.914 457.985 457.061 453.485 451.865C453.588 451.642 453.707 451.392 453.825 451.125C459.584 457.876 471.885 467.838 490.627 460.688Z" fill="#662C33"/>
<path d="M506.718 368.077C507.71 372.325 508.346 376.96 508.375 381.829C508.125 381.948 507.873 382.081 507.635 382.259C507.606 359.905 494.667 342.468 494.521 342.275L495.113 341.831C495.23 341.979 502.899 352.341 506.526 367.308C508.035 366.316 509.057 364.895 509.486 363.059C511.351 355.213 502.869 342.393 502.795 342.26L503.402 341.845C503.758 342.393 512.137 355.065 510.211 363.221C509.709 365.353 508.525 366.967 506.718 368.077Z" fill="#662C33"/>
<path d="M573.437 379.328C571.232 381.727 569.158 383.769 568.966 383.947L568.566 384.347L568.374 383.813C565.473 376.219 546.821 359.757 546.628 359.595L546.406 359.388L549.514 354.236C549.706 354.429 549.885 354.607 550.048 354.784L547.442 359.107C551.069 360.365 553.645 360.587 555.45 360.365C555.673 360.587 555.88 360.824 556.102 361.045C555.496 361.149 554.844 361.209 554.162 361.209C552.49 361.209 550.581 360.868 548.434 360.217C552.668 364.036 565.828 376.235 568.848 383.029C570.017 381.875 571.498 380.349 572.933 378.795C573.112 378.973 573.274 379.151 573.437 379.328Z" fill="#662C33"/>
<path d="M471.087 430.237L470.791 430.296C470.51 430.37 467.15 431.066 463.286 431.066C461.346 431.066 459.303 430.889 457.454 430.37C457.454 430.104 457.454 429.852 457.438 429.601C462.323 431.006 468.851 429.926 470.332 429.645L469.088 398.84C468.392 400.526 467.016 402.836 464.44 404.109C463.211 404.73 461.835 405.026 460.324 405.026C459.422 405.026 458.475 404.924 457.468 404.701V403.946C460.028 404.538 462.25 404.376 464.1 403.442C467.238 401.889 468.482 398.558 468.867 397.24C466.394 397.61 461.406 396.352 457.602 395.182V394.413C461.702 395.656 467.252 397.092 469.251 396.397L469.726 396.233L471.087 430.237Z" fill="#662C33"/>
<path d="M598.026 418.72C593.718 422.968 584.895 429.468 571.32 429.468C569.884 429.468 568.39 429.393 566.835 429.231L566.287 428.431C582.792 430.325 593.14 422.584 597.744 417.965C597.848 418.232 597.936 418.468 598.026 418.72Z" fill="#662C33"/>
<path d="M525.785 156.54C525.785 156.54 524.139 152.748 517.181 152.747C511.82 152.746 509.768 155.708 509.768 155.708C506.561 165.083 503.113 200.982 501.879 202.259C501.253 202.907 461.485 229.691 461.485 229.691C483.067 230.095 496.532 256.696 496.532 256.696C497.229 247.955 521.603 213.315 521.864 210.227C522.357 204.4 532.668 178.375 525.785 156.54Z" fill="#CE364C"/>
<path d="M456.745 344.24C456.745 344.24 456.545 351.729 458.968 352.223C461.391 352.716 481.128 358.549 503.827 348.232C526.525 337.913 530.473 330.264 523.812 324.589C517.151 318.915 456.745 344.24 456.745 344.24Z" fill="#CE364C"/>
<path d="M447.651 234.874C447.651 234.874 426.999 232.427 415.156 237.552C415.156 237.552 411.854 252.208 428.123 285.007C444.392 317.806 440.619 338.462 458.968 346.238C475.235 353.132 523.195 332.618 524.702 325.812C528.494 308.684 499.166 278.624 497.315 261.206C495.464 243.788 478.44 217.6 447.651 234.874Z" fill="#F24052"/>
<path d="M415.155 237.552C400.722 242.678 384.485 258.883 384.462 266.694C384.438 274.506 398.005 277.516 398.005 277.516L420.245 266.694C420.245 266.694 426.607 262.252 422.557 249.306C418.507 236.359 415.155 237.552 415.155 237.552Z" fill="#CE364C"/>
<path d="M474.461 251.995C470.149 251.995 464.799 250.442 461.475 248.074C459.645 246.767 458.551 245.295 458.315 243.815C457.501 238.688 462.493 236.082 462.706 235.974L463.378 237.291C463.205 237.38 459.134 239.527 459.778 243.582C459.949 244.662 460.834 245.798 462.334 246.867C466.055 249.52 472.491 251.076 476.682 250.338C478.57 250.004 479.806 249.324 480.354 248.319C481.025 247.09 480.453 245.696 480.447 245.683L481.807 245.098C481.843 245.18 482.67 247.14 481.665 249.008C480.894 250.44 479.303 251.378 476.939 251.795C476.174 251.93 475.338 251.995 474.461 251.995Z" fill="#CFD8DC"/>
<path d="M456.157 267.615C452.963 267.615 447.661 266.283 446.918 261.04C446.539 258.371 446.783 256.147 446.997 254.184C447.314 251.293 447.563 249.009 445.879 246.273C443.098 241.757 439.313 241.453 439.151 241.443L439.241 239.965C439.43 239.976 443.935 240.295 447.141 245.497C449.09 248.667 448.789 251.425 448.469 254.345C448.254 256.312 448.031 258.347 448.383 260.832C449.186 266.488 456.397 266.135 456.702 266.119L456.79 267.596C456.59 267.608 456.378 267.615 456.157 267.615Z" fill="#CFD8DC"/>
<path d="M460.65 241.046C460.65 241.046 471.567 233.61 468.976 225.561C466.386 217.511 431.228 218.067 422.16 227.689C413.094 237.311 441.775 243.698 441.775 243.698C443.996 239.223 458.183 238.73 460.65 241.046Z" fill="#CE364C"/>
<path d="M441.022 239.787C435.842 238.028 432.77 234.29 433.881 229.971C434.991 225.654 457.262 225.539 461.485 228.988C465.709 232.439 459.759 246.148 441.022 239.787Z" fill="#A02E44"/>
<path d="M438.557 227.652C438.557 227.652 443.139 235.481 441.022 239.787C441.022 239.787 456.745 245.215 456.745 236.417C456.745 236.417 453.782 229.824 454.898 225.561L438.557 227.652Z" fill="#EF6E4B"/>
<path d="M433.313 220.814C433.313 220.814 425.588 208.442 426.304 196.623C426.662 190.714 429.701 188.399 429.701 188.399C429.701 188.399 427.248 184.988 429.877 179.776C429.877 179.776 433.516 183.987 446.286 182.658C458.601 181.378 459.829 190.156 459.829 190.156C468.63 191.464 462.693 218.092 456.55 220.814H433.313Z" fill="#FFB878"/>
<path d="M430.036 209.389C430.036 209.389 425.596 204.959 425.049 210.139C424.416 216.14 429.866 218.557 430.932 216.648C431.997 214.739 430.036 209.389 430.036 209.389Z" fill="#FF8B66"/>
<path d="M461.128 209.702C461.128 209.702 465.568 205.271 466.115 210.451C466.748 216.451 461.297 218.87 460.232 216.96C459.167 215.051 461.128 209.702 461.128 209.702Z" fill="#FF8B66"/>
<path d="M445.114 231.126C435.262 231.126 429.702 224.69 429.702 205.39C429.702 195.434 434.767 189.327 445.802 189.327C456.838 189.327 461.485 195.434 461.485 205.39C461.485 226.13 455.291 231.126 445.114 231.126Z" fill="#FF8B66"/>
<path d="M458.222 212.274C458.395 213.264 457.531 214.243 456.293 214.458C455.054 214.674 453.91 214.046 453.738 213.056C453.565 212.066 454.429 211.088 455.667 210.872C456.905 210.656 458.049 211.284 458.222 212.274Z" fill="#DB614D"/>
<path d="M437.958 212.813C437.893 213.816 436.822 214.562 435.569 214.481C434.314 214.4 433.35 213.52 433.415 212.517C433.481 211.514 434.55 210.766 435.805 210.849C437.059 210.93 438.023 211.81 437.958 212.813Z" fill="#DB614D"/>
<path d="M453.883 201.925C453.754 201.945 453.619 201.915 453.509 201.829C451.941 200.624 449.587 201.051 449.55 201.056C449.289 201.099 449.027 200.931 448.977 200.663C448.925 200.395 449.102 200.139 449.37 200.088C449.473 200.065 452.194 199.577 454.107 201.048C454.323 201.215 454.363 201.524 454.199 201.739C454.119 201.844 454.003 201.907 453.883 201.925Z" fill="#FFB878"/>
<path d="M435.027 201.994C434.906 201.979 434.791 201.919 434.707 201.818C434.535 201.607 434.566 201.296 434.775 201.124C436.642 199.595 439.375 200 439.48 200.019C439.75 200.062 439.932 200.312 439.891 200.58C439.85 200.85 439.587 201.028 439.33 200.992C439.312 200.986 436.914 200.643 435.4 201.886C435.29 201.975 435.156 202.01 435.027 201.994Z" fill="#FFB878"/>
<path d="M452.865 207.486C452.865 208.709 452.314 209.702 451.634 209.701C450.954 209.701 450.403 208.709 450.403 207.486C450.403 206.262 450.954 205.27 451.634 205.27C452.314 205.27 452.865 206.262 452.865 207.486Z" fill="#1A4850"/>
<path d="M439.708 207.486C439.708 208.709 439.158 209.702 438.478 209.701C437.798 209.701 437.247 208.709 437.247 207.486C437.247 206.262 437.798 205.27 438.478 205.27C439.158 205.27 439.708 206.262 439.708 207.486Z" fill="#1A4850"/>
<path d="M432.723 191.465C432.723 191.465 443.223 195.309 458.275 194.229C458.275 194.229 461.484 198.229 461.095 212.343C461.095 212.343 469.91 186.918 444.179 186.918C418.448 186.918 430.039 211.779 430.039 211.779C430.039 211.779 427.936 196.229 432.723 191.465Z" fill="#FFB878"/>
<path d="M445.736 214.065L444.999 213.323L446.948 211.385C445.058 208.715 445.068 202.532 445.07 202.256L446.116 202.261C446.116 202.328 446.107 208.98 448.035 211.071L448.378 211.441L445.736 214.065Z" fill="#DB614D"/>
<path d="M439.198 217.288C439.198 217.288 448.896 217.697 453.79 216.402C453.79 216.402 454.656 223.453 447.141 223.804C439.198 224.173 439.198 217.288 439.198 217.288Z" fill="#1A4850"/>
<path d="M480.635 243.947C482.486 243.603 482.3 248.445 480.635 247.041C478.97 245.639 478.784 244.291 480.635 243.947Z" fill="#CFD8DC"/>
<path d="M458.32 267.412C458.038 269.273 453.524 267.51 455.396 266.397C457.266 265.284 458.601 265.55 458.32 267.412Z" fill="#CFD8DC"/>
<path d="M438.457 277.516C438.457 277.516 435.518 285.051 435.686 289.308C435.854 293.564 437.246 293.009 437.246 293.009C437.246 293.009 435.018 293.887 434.596 296.34C434.174 298.793 440.369 300.596 440.794 300.596C441.221 300.596 445.593 298.931 445.593 298.931L446.509 285.007L442.64 282.576L438.457 277.516Z" fill="#EF6E4B"/>
<path d="M440.795 276.541C440.795 276.541 446.144 279.871 448.216 281.907C450.287 283.942 449.104 299.671 448.216 300.411C447.327 301.151 440.507 302.678 439.198 301.822C437.89 300.966 439.708 296.341 439.708 296.341C439.708 296.341 443.132 295.601 442.639 296.895C442.146 298.191 442.639 299.301 442.639 299.301L444.046 298.746C444.046 298.746 443.355 295.23 444.046 292.639C444.736 290.049 439.223 287.317 438.556 282.577C437.89 277.837 440.795 276.541 440.795 276.541Z" fill="#FF8B66"/>
<path d="M385.35 268.878C383.637 261.482 390.978 258.864 401.19 260.126C413.033 261.588 437.353 264.687 442.64 277.516C442.64 277.516 444.366 282.576 439.898 285.007C427.405 291.8 388.566 282.77 385.35 268.878Z" fill="#CE364C"/>
<path d="M422.396 263.977C422.396 263.977 408.283 258.114 401.251 257.519C394.219 256.926 410.974 263.07 422.396 263.977Z" fill="#A02E44"/>
<path d="M528.198 136.907C527.133 138.121 525.37 142.843 525.37 142.843C524.63 146.811 524.201 149.002 522.81 150.822C521.433 152.643 522.158 155.855 522.158 155.855C522.158 155.855 516.77 158.625 512.239 155.205C512.239 155.205 512.714 152.022 512.239 151.118C511.307 149.313 508.317 148.35 507.295 144.709C506.274 141.053 503.21 136.982 503.21 136.982C503.21 136.982 504.083 135.086 505.682 136.241C507.295 137.411 508.317 140.327 509.19 140.623C509.369 140.682 509.546 140.727 509.723 140.742C509.723 140.742 509.738 140.742 509.767 140.757C510.434 140.845 511.115 140.697 511.53 140.298C511.559 140.282 511.603 140.253 511.633 140.209C513.098 138.506 513.439 133.502 513.379 131.267C513.291 128.158 513.41 123.866 515.305 124.591C517.199 125.317 515.467 127.049 516.933 133.902L517.643 133.991C517.777 134.479 519.079 129.831 519.39 125.465C519.613 122.459 521.581 123.57 522.01 124.517C522.454 125.465 521.789 128.454 521.655 130.631C521.551 132.067 521.433 133.562 521.359 134.45L522.187 134.909C525.178 129.698 524.157 127.537 525.903 127.433C527.635 127.33 527.014 131.726 526.081 133.399C525.682 134.125 525.297 135.634 524.986 137.114C528.05 133.577 527.71 131.726 529.115 131.949C530.566 132.185 529.263 135.694 528.198 136.907Z" fill="#FF8B66"/>
<path d="M514.964 145.064C513.928 142.207 510.226 140.904 509.768 140.756C510.434 140.845 511.114 140.697 511.529 140.297C515.156 141.925 514.964 145.064 514.964 145.064Z" fill="#EF6E4B"/>
<path d="M450.658 523.694C450.658 523.694 448.61 519.514 450.435 517.718C452.262 515.922 454.411 519.253 457.531 518.513C460.65 517.773 461.374 515.555 462.183 518.577C462.994 521.597 462.007 531.095 450.658 523.694Z" fill="#CFD8DC"/>
<path d="M462.399 523.509C462.399 523.509 454.02 526.477 449.678 523.509L450.78 527.136C450.78 527.136 459.887 528.101 461.143 525.805L462.399 523.509Z" fill="#ADBEC4"/>
<path d="M462.286 528.015C462.286 528.015 454.615 526.951 450.914 528.855V530.654C450.914 530.654 460.917 528.319 464.149 530.654L462.286 528.015Z" fill="#ADBEC4"/>
<path d="M450.547 534.388C450.547 534.388 452.035 530.763 456.702 530.503C461.368 530.242 464.518 532.812 464.518 532.812C464.518 532.812 457.116 529.763 450.547 534.388Z" fill="#ADBEC4"/>
<path d="M648.002 484.018C633.273 503.676 613.229 507.451 613.229 507.451C607.412 502.803 607.264 497.296 607.264 497.296C607.264 497.296 601.653 492.292 600.913 489.895C600.173 487.496 605.724 480.272 609.054 481.012C611.349 481.516 612.681 483.351 613.289 484.432C610.536 478.23 612.741 476.068 616.649 476.602C620.72 477.148 616.87 478.111 619.788 481.383C619.994 481.619 620.232 481.812 620.482 481.99C621.016 482.36 621.652 482.611 622.377 482.744C623.014 482.863 623.725 482.892 624.465 482.848C624.85 482.834 625.249 482.79 625.649 482.73C626.404 482.611 627.174 482.419 627.973 482.167C629.202 481.783 630.476 481.235 631.718 480.554C636.812 477.771 638.957 476.823 642.835 477.815C646.7 478.792 646.641 481.723 646.641 481.723L648.002 484.018Z" fill="#CFD8DC"/>
<path d="M648.002 484.018C633.273 503.676 613.229 507.451 613.229 507.451C623.458 503.055 632.858 497.296 639.283 490.206C645.693 483.115 648.002 484.018 648.002 484.018Z" fill="#ADBEC4"/>
<path d="M620.482 481.99C621.016 482.36 621.652 482.611 622.377 482.744C618.484 483.53 618.202 487.008 618.202 487.008L616.545 486.475C616.9 482.3 620.201 482.004 620.482 481.99Z" fill="#ADBEC4"/>
<path d="M623.103 487.422L621.371 487.482C620.719 485.024 621.563 483.558 622.378 482.745C623.014 482.864 623.724 482.893 624.464 482.848C622.407 484.876 623.103 487.422 623.103 487.422Z" fill="#ADBEC4"/>
<path d="M627.381 486.475L625.663 486.698C624.997 484.95 625.19 483.647 625.649 482.73C626.403 482.611 627.173 482.419 627.973 482.167C626.551 484.284 627.381 486.475 627.381 486.475Z" fill="#ADBEC4"/>
<path d="M462.553 303.927C462.553 303.927 466.354 324.442 458.666 332.617C450.979 340.793 456.065 334.074 458.358 323.534C460.65 312.994 458.903 301.893 462.553 303.927Z" fill="#CE364C"/>
<path d="M498.028 294.772C498.028 294.772 510.146 298.753 516.484 309.945C516.484 309.945 508.02 291.724 498.028 294.772Z" fill="#CE364C"/>
<path d="M183.297 142.356C184.912 142.381 189.594 144.245 189.594 144.245C193.032 146.36 194.944 147.513 197.228 147.704C199.501 147.907 200.434 151.813 200.434 151.813C200.434 151.813 209.4 153.775 209.906 148.121C209.906 148.121 204.894 141.027 204.544 140.069C203.83 138.165 205.125 135.304 203.112 132.101C201.088 128.891 200.128 123.885 200.128 123.885C200.128 123.885 198.137 123.261 197.92 125.221C197.702 127.203 199.178 129.917 198.812 130.763C198.736 130.935 198.65 131.096 198.541 131.237C198.541 131.237 198.532 131.248 198.522 131.28C198.141 131.833 197.574 132.239 197 132.277C196.969 132.291 196.917 132.303 196.865 132.295C194.62 132.239 190.682 129.132 189.065 127.587C186.821 125.435 183.56 122.64 182.825 124.531C182.09 126.423 184.537 126.301 188.633 131.989L188.221 132.576C188.494 133.003 184.174 130.847 180.729 128.145C178.353 126.293 177.854 128.497 178.268 129.452C178.672 130.417 181.336 131.931 183.038 133.293C184.172 134.18 185.36 135.096 186.068 135.637L185.85 136.56C179.981 135.277 179.065 133.069 177.816 134.295C176.576 135.509 180.252 138 182.118 138.432C182.924 138.623 184.301 139.351 185.608 140.115C180.928 140.011 179.785 138.516 179.005 139.707C178.208 140.941 181.682 142.331 183.297 142.356Z" fill="#FF8B66"/>
<path d="M198.227 138.023C196.806 135.338 198.324 131.719 198.523 131.281C198.142 131.834 197.574 132.239 197 132.278C195.772 136.059 198.227 138.023 198.227 138.023Z" fill="#EF6E4B"/>
<path d="M447.104 142.356C445.49 142.381 440.807 144.245 440.807 144.245C437.37 146.36 435.458 147.513 433.174 147.704C430.9 147.907 429.967 151.813 429.967 151.813C429.967 151.813 421.002 153.775 420.495 148.121C420.495 148.121 425.507 141.027 425.858 140.069C426.571 138.165 425.276 135.304 427.29 132.101C429.314 128.891 430.274 123.885 430.274 123.885C430.274 123.885 432.264 123.261 432.482 125.221C432.699 127.203 431.223 129.917 431.59 130.763C431.666 130.935 431.751 131.096 431.86 131.237C431.86 131.237 431.87 131.248 431.879 131.28C432.26 131.833 432.827 132.239 433.402 132.277C433.432 132.291 433.484 132.303 433.536 132.295C435.783 132.239 439.719 129.132 441.336 127.587C443.58 125.435 446.842 122.64 447.576 124.531C448.311 126.423 445.864 126.301 441.768 131.989L442.18 132.576C441.907 133.003 446.227 130.847 449.672 128.145C452.048 126.293 452.547 128.497 452.134 129.452C451.73 130.417 449.066 131.931 447.363 133.293C446.23 134.18 445.042 135.096 444.334 135.637L444.551 136.56C450.42 135.277 451.336 133.069 452.586 134.295C453.826 135.509 450.15 138 448.283 138.432C447.478 138.623 446.1 139.351 444.794 140.115C449.474 140.011 450.616 138.516 451.396 139.707C452.194 140.941 448.719 142.331 447.104 142.356Z" fill="#FF8B66"/>
<path d="M432.175 138.023C433.596 135.338 432.078 131.719 431.879 131.281C432.26 131.834 432.828 132.239 433.402 132.278C434.63 136.059 432.175 138.023 432.175 138.023Z" fill="#EF6E4B"/>
<path d="M368.307 414.151L351.082 307.496L316.591 311.348L282.099 307.496L264.875 414.151L256.602 517.592C256.602 517.592 259.231 526.163 276.438 520.241C276.438 520.241 289.203 424.297 291.176 422.185C293.151 420.072 313.42 357.404 313.42 357.404H319.76C319.76 357.404 340.031 420.072 342.004 422.185C343.979 424.297 356.744 520.241 356.744 520.241C373.95 526.163 376.58 517.592 376.58 517.592L368.307 414.151Z" fill="#0E3944"/>
<path d="M305.726 204.213C307.904 206.333 318.623 210.158 324.283 204.213L328.12 207.982C328.12 207.982 323.744 218.273 316.066 218.633C308.387 218.993 302.835 209.477 302.835 209.477L305.726 204.213Z" fill="#0C476B"/>
<path d="M336.082 203.051C348.911 197.527 390.361 182.846 390.361 182.846C390.361 182.846 418.223 147.936 423.906 142.755C423.906 142.755 430.075 143.866 431.879 151.544C431.879 151.544 413.937 189.963 404.185 200.962C394.431 211.96 345.034 235.748 345.034 235.748L336.082 203.051Z" fill="#0C476B"/>
<path d="M291.178 202.259C294.995 199.846 314.156 212.666 314.156 212.666C314.156 212.666 339.068 199.436 344.915 201.998C344.915 201.998 350.183 209.048 352.3 227.174C354.418 245.299 354.558 319.888 354.558 319.888C354.558 319.888 337.808 325.812 315.154 325.812C289.327 325.812 275.432 318.407 275.432 318.407C275.432 318.407 270.823 215.132 291.178 202.259Z" fill="#FFB878"/>
<path d="M306.737 200.322C306.737 200.322 309.496 209 306.737 212.344C306.737 212.344 309.603 218.356 314.753 218.622C320.703 218.93 322.768 212.344 322.768 212.344C322.768 212.344 319.621 203.962 322.768 201.016L306.737 200.322Z" fill="#EF6E4B"/>
<path d="M299.859 191.779C299.859 191.779 294.052 180.603 295.201 168.659C296.351 156.716 314.347 153.978 326.475 159.846C326.475 159.846 322.875 156.326 324.283 155.347C325.692 154.37 328.12 160.628 328.12 160.628C328.12 160.628 331.951 159.455 332.537 160.628C333.124 161.802 328.613 162.444 328.613 162.444C328.613 162.444 336.44 166.783 329.128 189.882L299.859 191.779Z" fill="#8B383E"/>
<path d="M298.986 184.701C298.986 184.701 294.656 180.381 294.123 185.432C293.506 191.282 298.82 193.64 299.859 191.778C300.898 189.917 298.986 184.701 298.986 184.701Z" fill="#FF8B66"/>
<path d="M329.304 185.006C329.304 185.006 333.633 180.685 334.166 185.735C334.784 191.587 329.469 193.945 328.43 192.083C327.392 190.222 329.304 185.006 329.304 185.006Z" fill="#FF8B66"/>
<path d="M313.688 205.896C304.081 205.896 298.66 199.622 298.66 180.8C298.66 171.094 303.599 165.139 314.359 165.139C325.119 165.139 329.651 171.094 329.651 180.8C329.651 201.024 323.612 205.896 313.688 205.896Z" fill="#FF8B66"/>
<path d="M326.47 187.514C326.639 188.479 325.796 189.434 324.588 189.643C323.38 189.854 322.266 189.242 322.098 188.277C321.928 187.311 322.771 186.358 323.979 186.147C325.186 185.937 326.302 186.549 326.47 187.514Z" fill="#DB614D"/>
<path d="M306.71 188.039C306.646 189.018 305.603 189.746 304.379 189.666C303.156 189.586 302.216 188.729 302.28 187.751C302.344 186.773 303.387 186.045 304.611 186.125C305.834 186.203 306.774 187.062 306.71 188.039Z" fill="#DB614D"/>
<path d="M322.076 177.748C321.949 177.748 321.824 177.699 321.729 177.6C320.397 176.204 318.067 176.264 318.032 176.264C317.772 176.266 317.545 176.064 317.537 175.799C317.528 175.534 317.736 175.312 318.001 175.304C318.104 175.298 320.799 175.234 322.423 176.938C322.607 177.13 322.599 177.434 322.408 177.616C322.315 177.706 322.195 177.748 322.076 177.748Z" fill="#8B383E"/>
<path d="M303.987 177.748C303.869 177.748 303.75 177.706 303.657 177.616C303.465 177.434 303.458 177.13 303.639 176.938C305.263 175.234 307.955 175.299 308.061 175.304C308.326 175.312 308.534 175.534 308.525 175.798C308.517 176.063 308.285 176.267 308.031 176.264C308.013 176.26 305.651 176.216 304.335 177.6C304.239 177.699 304.114 177.748 303.987 177.748Z" fill="#8B383E"/>
<path d="M321.246 182.846C321.246 184.039 320.708 185.006 320.046 185.006C319.383 185.006 318.846 184.039 318.846 182.846C318.846 181.652 319.383 180.684 320.046 180.684C320.708 180.684 321.246 181.652 321.246 182.846Z" fill="#1A4850"/>
<path d="M308.417 182.846C308.417 184.039 307.879 185.006 307.217 185.006C306.554 185.006 306.017 184.039 306.017 182.846C306.017 181.652 306.554 180.684 307.217 180.684C307.879 180.684 308.417 181.652 308.417 182.846Z" fill="#1A4850"/>
<path d="M308.417 195.61C308.417 195.61 316.889 196.7 321.246 194.608C321.246 194.608 318.782 200.376 314.156 199.859C309.529 199.342 308.417 195.61 308.417 195.61Z" fill="#1A4850"/>
<path d="M328.651 187.138C328.651 187.138 328.351 176.69 324.283 168.66C324.283 168.66 317.112 171.973 315.534 171.19C313.955 170.408 317.038 168.66 317.038 168.66C317.038 168.66 305.206 172.56 304.495 171.778C303.784 170.996 308.416 168.66 308.416 168.66L301.046 171.19C301.046 171.19 298.774 180.592 299.714 187.138C299.714 187.138 296.547 181.673 296.156 177.898C295.764 174.125 297.423 163.366 308.526 162.585C319.628 161.802 325.863 164.321 328.614 169.418C331.364 174.516 331.023 180.788 328.651 187.138Z" fill="#8B383E"/>
<path d="M315.362 192.591C314.429 192.591 313.481 192.35 313.194 192.27L313.466 191.287C314.474 191.566 316.056 191.731 316.401 191.325C316.52 191.183 316.472 190.855 316.269 190.425C314.88 187.473 314.592 179.997 314.58 179.679L315.6 179.642C315.602 179.718 315.892 187.226 317.193 189.99C317.589 190.833 317.585 191.503 317.18 191.982C316.786 192.45 316.08 192.591 315.362 192.591Z" fill="#DB614D"/>
<path d="M325.991 206.962C325.991 206.962 343.378 260.936 345.034 304.852C345.034 304.852 351.31 306.58 358.375 296.957C365.441 287.334 361.238 211.118 347.702 198.428C347.702 198.428 341.561 197.028 325.991 206.962Z" fill="#105E99"/>
<path d="M328.826 216.402C328.826 216.402 331.938 209.171 330.555 204.212C329.173 199.254 324.283 204.212 324.283 204.212C324.283 204.212 326.258 212.331 328.826 216.402Z" fill="#0C476B"/>
<path d="M293.926 203.051C281.097 197.527 239.648 182.846 239.648 182.846C239.648 182.846 211.714 146.918 206.032 141.736C206.032 141.736 199 145.715 198.522 153.95C198.522 153.95 216.072 189.963 225.824 200.962C235.577 211.96 284.974 235.748 284.974 235.748L293.926 203.051Z" fill="#0C476B"/>
<path d="M304.017 206.962C304.017 206.962 286.63 260.936 284.974 304.852C284.974 304.852 278.698 306.58 271.633 296.957C264.567 287.334 268.77 211.118 282.306 198.428C282.306 198.428 288.447 197.028 304.017 206.962Z" fill="#105E99"/>
<path d="M301.183 216.402C301.183 216.402 298.071 209.171 299.454 204.212C300.836 199.254 305.726 204.212 305.726 204.212C305.726 204.212 303.751 212.331 301.183 216.402Z" fill="#0C476B"/>
<path d="M391.918 545.407H357.397C354.983 531.685 358.833 517.947 358.833 517.947L374.613 515.238C376.049 523.913 377.781 527.333 380.179 529.094H380.194C381.941 530.367 384.027 530.782 386.633 531.685C389.609 532.721 391.178 534.601 391.962 536.643C393.517 540.699 391.918 545.407 391.918 545.407Z" fill="#662C33"/>
<path d="M391.962 536.644C383.45 537.709 364.753 539.53 365.893 534.601C366.841 530.485 374.731 529.376 380.178 529.094H380.193C381.941 530.368 384.027 530.782 386.633 531.685C389.609 532.721 391.178 534.601 391.962 536.644Z" fill="#8B383E"/>
<path d="M276.303 545.407H241.782C241.782 545.407 240.686 542.181 241.19 538.761C241.605 535.978 243.085 533.061 247.066 531.685C250.057 530.649 252.351 530.263 254.231 528.502C256.274 526.578 257.799 523.025 259.087 515.238L274.867 517.947C274.867 517.947 278.702 531.685 276.303 545.407Z" fill="#662C33"/>
<path d="M241.189 538.761C241.604 535.978 243.084 533.061 247.067 531.685C250.056 530.649 252.351 530.263 254.231 528.502C258.599 529.849 264.712 532.321 266.607 536.066C269.241 541.203 249.065 540.389 241.189 538.761Z" fill="#8B383E"/>
<path d="M524.142 542.935C524.142 544.386 523.994 545.407 523.994 545.407H482.056C482.056 544.578 482.072 543.75 482.116 542.935C482.589 531.966 486.053 522.447 486.053 522.447L496.534 517.947C497.437 523.35 499.761 526.799 502.677 529.05C503.446 529.657 504.246 530.161 505.076 530.59C505.46 530.797 505.845 530.989 506.245 531.167C507.118 531.566 508.021 531.893 508.924 532.158C512.625 533.283 516.37 533.521 518.99 533.921C523.461 534.615 524.142 539.782 524.142 542.935Z" fill="#164353"/>
<path d="M524.142 542.935C524.142 544.386 523.994 545.407 523.994 545.407H482.056C482.056 544.578 482.072 543.75 482.116 542.935H524.142Z" fill="#225866"/>
<path d="M505.075 530.589L499.258 532.455L498.028 530.323L502.676 529.049C503.447 529.657 504.246 530.16 505.075 530.589Z" fill="#225866"/>
<path d="M508.924 532.158L505.001 534.764L502.588 533.816L506.244 531.166C507.119 531.566 508.021 531.892 508.924 532.158Z" fill="#225866"/>
<path d="M363.91 542.935C363.806 544.357 363.437 545.407 363.437 545.407H335.502C335.147 544.594 334.895 543.779 334.718 542.935C331.965 529.569 350.527 513.21 350.527 513.21L356.419 521.071C356.419 521.071 355.738 533.654 360.727 536.274C363.718 537.843 364.102 540.803 363.91 542.935Z" fill="#164353"/>
<path d="M334.718 542.935H363.91C363.807 544.357 363.436 545.407 363.436 545.407H335.503C335.147 544.594 334.895 543.779 334.718 542.935Z" fill="#225866"/>
<path d="M359.45 535.272C359.45 535.272 347.681 532.589 342.315 536.062V534.12C342.315 534.12 352.215 529.309 359.45 535.272Z" fill="#225866"/>
<path d="M357.118 532.286C357.118 532.286 349.604 528.85 342.314 532.286L343.148 530.326C343.148 530.326 351.853 527.034 357.118 532.286Z" fill="#225866"/>
<path d="M511.485 424.093C511.499 435.329 501.522 526.932 501.522 526.932C491.545 527.924 483.55 525.925 483.55 525.925C480.813 479.503 480.546 439.577 480.546 439.577L432.73 403.739L432.613 403.649C432.613 403.649 432.434 404.464 432.109 405.915C429.741 416.425 419.718 460.451 415.543 470.532C410.791 482.019 358.835 530.327 358.835 530.327C349.183 528.993 340.994 522.003 340.994 522.003C359.646 491.064 385.078 460.036 385.078 460.036C387.062 448.889 388.483 424.093 389.327 405.56C389.342 405.279 389.357 404.983 389.371 404.701C389.934 392.148 390.215 382.673 390.215 382.673L381.451 364.703L437.127 344.244L449.606 360.216C449.606 360.216 452.463 362.867 456.963 367.1C457.171 367.292 457.378 367.485 457.586 367.677C474.298 383.443 511.485 419.06 511.485 424.093Z" fill="#8BBDDB"/>
<path d="M389.327 405.56C389.342 405.278 389.356 404.982 389.371 404.701C401.095 398.336 399.127 388.181 399.098 388.077L399.823 387.929C399.852 388.033 401.954 398.942 389.327 405.56Z" fill="#6097B2"/>
<path d="M431.873 396.559C432.273 398.779 432.569 401.178 432.731 403.739L432.613 403.65C432.613 403.65 432.435 404.465 432.11 405.915C431.591 388.506 424.411 378.218 424.323 378.099L424.93 377.67C425.003 377.759 429.534 384.302 431.725 395.715C440.193 388.195 431.902 372.785 431.814 372.637L432.465 372.282C432.554 372.445 441.333 388.758 431.873 396.559Z" fill="#6097B2"/>
<path d="M457.586 367.678C457.571 367.693 457.542 367.693 457.527 367.707C457.186 367.841 456.787 367.899 456.372 367.899C452.271 367.899 445.388 362.157 445.062 361.875L445.551 361.313C447.786 363.207 454.018 367.751 456.964 367.101C457.171 367.293 457.379 367.486 457.586 367.678Z" fill="#6097B2"/>
<path d="M385.35 268.878C385.35 268.878 402.286 266.152 410.771 271.562C419.256 276.971 430.398 291.09 430.398 291.09C430.398 291.09 417.171 292.836 415.674 301.822C415.674 301.822 406.064 278.939 385.35 268.878" fill="#ADBEC4"/>
<path d="M359.873 277.711C352.709 281.584 340.734 296.124 340.193 305.066C339.665 313.788 346.126 321.81 350.481 328.628C364.071 349.907 378.381 368.708 384.462 393.666C384.501 393.824 415.549 406.144 451.986 362.344C451.986 362.344 431.397 334.642 424.283 311.056C421.389 301.455 418.442 291.258 412.881 282.796C406.755 273.476 396.263 267.992 385.35 268.878C376.115 269.627 366.931 273.895 359.873 277.711Z" fill="#CFD8DC"/>
<path d="M356.866 268.785C356.866 268.785 361.448 276.614 359.332 280.919C359.332 280.919 375.054 286.349 375.054 277.55C375.054 277.55 372.092 270.957 373.208 266.694L356.866 268.785Z" fill="#EF6E4B"/>
<path d="M391.806 322.397C391.806 322.397 383.059 324.881 380.852 327.977C378.646 331.075 376.682 338.019 376.682 338.019H391.806L394.65 332.787L397.979 325.813L391.806 322.397Z" fill="#EF6E4B"/>
<path d="M377.348 260.055C377.348 260.055 383.488 257.48 379.516 239.009C376.882 226.772 373.092 224.948 370.642 224.841C370.642 224.841 367.645 220.325 357.248 222.487C350.128 223.968 344.446 228.292 341.946 236.293C339.336 244.645 344.557 262.548 351.433 264.331L377.348 260.055Z" fill="#164353"/>
<path d="M378.799 247.574C378.799 247.574 382.669 242.187 384.13 247.497C385.823 253.647 380.554 257.107 379.115 255.299C377.675 253.491 378.799 247.574 378.799 247.574Z" fill="#FF8B66"/>
<path d="M346.42 253.251C346.42 253.251 341.025 249.393 341.347 254.891C341.719 261.259 347.821 262.843 348.604 260.668C349.387 258.493 346.42 253.251 346.42 253.251Z" fill="#FF8B66"/>
<path d="M366.811 272.843C377.088 271.147 381.78 263.478 378.459 243.344C376.746 232.959 370.411 227.462 358.9 229.36C347.388 231.259 343.592 238.428 345.306 248.815C348.875 270.448 356.194 274.595 366.811 272.843Z" fill="#FF8B66"/>
<path d="M349.894 255.433C349.884 256.496 350.954 257.368 352.283 257.38C353.612 257.392 354.696 256.54 354.707 255.477C354.716 254.415 353.647 253.544 352.318 253.532C350.99 253.519 349.903 254.371 349.894 255.433Z" fill="#DB614D"/>
<path d="M371.125 252.509C371.365 253.545 372.61 254.138 373.905 253.838C375.199 253.537 376.053 252.453 375.813 251.418C375.571 250.383 374.327 249.787 373.033 250.089C371.738 250.39 370.883 251.474 371.125 252.509Z" fill="#DB614D"/>
<path d="M352.786 244.219C352.685 244.219 352.582 244.19 352.493 244.128C352.256 243.967 352.194 243.643 352.356 243.406C353.793 241.298 356.677 240.894 356.8 240.876C357.102 240.843 357.345 241.04 357.384 241.323C357.421 241.608 357.222 241.87 356.937 241.908C356.91 241.912 354.386 242.272 353.217 243.991C353.116 244.139 352.953 244.219 352.786 244.219Z" fill="#1A4850"/>
<path d="M372.136 241.026C372.027 241.026 371.916 240.991 371.823 240.921C370.159 239.665 367.659 240.139 367.635 240.143C367.348 240.206 367.079 240.017 367.023 239.734C366.967 239.453 367.149 239.178 367.432 239.123C367.552 239.099 370.413 238.554 372.449 240.09C372.68 240.262 372.724 240.589 372.552 240.818C372.449 240.954 372.293 241.026 372.136 241.026Z" fill="#1A4850"/>
<path d="M354.658 249.517C354.869 250.795 355.614 251.735 356.324 251.617C357.033 251.5 357.437 250.371 357.226 249.093C357.016 247.817 356.27 246.879 355.561 246.995C354.852 247.112 354.448 248.241 354.658 249.517Z" fill="#1A4850"/>
<path d="M368.382 247.254C368.593 248.53 369.338 249.47 370.047 249.352C370.757 249.235 371.161 248.106 370.95 246.83C370.739 245.554 369.994 244.614 369.285 244.731C368.575 244.848 368.171 245.978 368.382 247.254Z" fill="#1A4850"/>
<path d="M372.235 258.841C372.235 258.841 363.32 261.232 358.375 260.283C358.375 260.283 361.792 264.588 366.672 263.347C371.552 262.104 372.235 258.841 372.235 258.841Z" fill="#1A4850"/>
<path d="M372.657 234.001C372.657 234.001 361.057 242.4 346.497 243.04L346.909 256.001C346.909 256.001 333.339 230.996 360.178 226.568C387.02 222.138 379.206 250.069 379.206 250.069C379.206 250.069 378.376 238.022 372.657 234.001Z" fill="#0E3944"/>
<path d="M363.169 255.359L363.096 254.239C363.112 254.238 364.66 254.118 365.061 253.159C365.228 252.764 364.568 251.506 363.986 250.396C363.178 248.854 362.173 246.935 361.745 244.803L362.846 244.582C363.241 246.556 364.205 248.396 364.981 249.875C365.844 251.522 366.466 252.711 366.097 253.594C365.424 255.195 363.261 255.354 363.169 255.359Z" fill="#DB614D"/>
<path d="M378.95 234.032C359.439 225.564 341.023 243.122 341.023 243.122C341.023 243.122 338.877 228.895 342.637 225.564C343.614 224.691 344.666 223.922 345.761 223.24C354.377 217.808 365.834 217.911 371.09 219.776C372.17 220.162 372.999 220.62 373.473 221.108C376.582 224.336 378.95 234.032 378.95 234.032Z" fill="#CE364C"/>
<path d="M376.581 230.865C376.581 230.865 360.193 227.623 344.917 237.734C344.917 237.734 343.94 228.555 345.761 223.241C354.376 217.809 365.834 217.911 371.089 219.777C374.153 223.271 376.581 230.865 376.581 230.865Z" fill="#CFD8DC"/>
<path d="M342.637 241.449C342.637 241.449 345.235 230.416 348.735 227.308C354.557 222.138 370.917 220.362 379.515 223.472C388.114 226.58 379.515 235.974 379.515 235.974C379.515 235.974 365.811 226.157 342.637 241.449Z" fill="#A02E44"/>
<path d="M367.942 314.765C367.942 314.765 374.639 325.138 386.044 331.241C386.044 331.241 400.312 318.857 418.812 319.97C418.812 319.97 403.479 347.635 390.312 350.698C383.394 352.309 358.375 335.741 358.375 335.741C358.375 335.741 363.37 318.134 367.942 314.765Z" fill="#FF8B66"/>
<path d="M343.278 295.958C349.408 285.981 363.546 300.73 368.358 311.265C373.17 321.798 376.682 324.032 376.682 324.032C376.682 324.032 362.554 329.934 362.656 340.522C362.656 340.522 329.905 317.73 343.278 295.958Z" fill="#ADBEC4"/>
<path d="M386.044 326.683C386.044 326.683 394.649 318.241 422.945 307.222L419.292 295.73C422.537 291.458 428.505 291.458 428.505 291.458C428.505 291.458 443.003 311.93 440.507 318.045C438.948 321.863 408.709 325.871 386.044 326.683Z" fill="#EF6E4B"/>
<path d="M417.032 309.98C417.032 309.98 417.255 308.771 418.302 307.295C419.347 305.819 419.063 303.131 419.439 302.299C419.814 301.466 422.039 298.063 423.516 297.4C424.995 296.739 426.932 295.656 427.344 297.531C427.756 299.406 424.698 298.875 423.324 301.572C423.324 301.572 426.33 300.6 428.714 301.164C431.098 301.728 431.772 303.907 428.827 303.835C426.479 303.778 423.452 305.452 423.452 305.452C423.452 305.452 426.514 305.912 426.02 307.324C425.338 309.275 421.603 308.074 417.032 309.98Z" fill="#FF8B66"/>
<path d="M207.758 348.522C210.287 354.998 220.649 366.101 220.649 366.101C220.649 366.101 245.961 350.927 257.638 357.311C269.315 363.695 278.595 367.591 286.169 364.81C293.741 362.03 261.267 302.97 261.267 302.97L219.162 286.903C219.162 286.903 218.243 297.553 213.433 299.445C208.622 301.337 203.493 318.916 203.837 322.246C204.181 325.577 207.758 348.522 207.758 348.522Z" fill="#3E6575"/>
<path d="M255.132 366.487C255.132 366.487 244.275 387.77 221.86 415.026C221.86 415.026 219.563 447.438 160.288 498.434L154.083 493.551C154.083 493.551 189.383 438.258 196.443 421.303C203.504 404.35 192.54 388.816 225.023 345.936L255.132 366.487Z" fill="#EF6E4B"/>
<path d="M220.576 328.826C211.23 346.729 208.093 369.617 208.093 369.617L203.837 380.354C203.837 380.354 218.933 388.496 236.365 391.457L243.357 372.952L220.576 328.826Z" fill="#662C33"/>
<path d="M269.322 364.811C269.322 364.811 273.95 388.249 273.187 423.531C273.187 423.531 291.425 450.424 276.374 527.155H268.479C268.479 527.155 262.029 461.872 257.095 444.181C252.161 426.492 233.938 421.064 232.951 367.277L269.322 364.811Z" fill="#FF8B66"/>
<path d="M273.95 389.972C273.95 389.972 259.102 392.636 232.944 391.408L232.53 388.462L232.426 387.706L229.718 368.64C229.718 368.64 227.2 365.532 224.61 360.469C224.299 359.876 224.003 359.269 223.707 358.633C220.184 351.128 217.06 340.217 220.568 328.833L226.09 329.085L226.86 329.129L245.335 329.973L246.119 330.018L252.188 330.3L253.136 330.344L257.074 330.521C257.074 330.521 277.088 348.537 273.52 381.845L273.772 386.478L273.802 387.233L273.95 389.972Z" fill="#8B383E"/>
<path d="M226.86 329.13C226.341 330.655 222.848 341.964 224.609 360.468C224.299 359.876 224.003 359.27 223.707 358.632C222.389 341.712 225.424 331.158 226.091 329.086C226.179 328.834 226.224 328.715 226.224 328.7L226.919 328.952C226.919 328.967 226.889 329.026 226.86 329.13Z" fill="#662C33"/>
<path d="M273.802 387.233C268.547 388.58 259.635 388.95 251.167 388.95C243.574 388.95 236.364 388.64 232.53 388.462L232.426 387.706C239.072 388.033 256.571 388.713 267.851 387.485L267.126 375.568C267.303 361.668 263.099 349.796 259.043 341.594C248.77 339.729 245.942 332.12 245.335 329.973C245.246 329.633 245.202 329.426 245.202 329.41L245.927 329.293C245.927 329.308 245.986 329.574 246.119 330.018C246.786 332.238 249.539 338.856 258.614 340.75C255.875 335.406 253.284 331.75 252.188 330.3C251.863 329.856 251.656 329.604 251.642 329.589L252.203 329.114C252.234 329.145 252.574 329.558 253.136 330.344C256.571 335.006 268.162 352.549 267.866 375.538L268.591 387.396C270.56 387.158 272.322 386.862 273.772 386.478L273.802 387.233Z" fill="#662C33"/>
<path d="M235.979 248.513C230.087 245.268 187.63 261.919 187.63 261.919C187.63 261.919 181.348 273.123 185.263 277.516C189.179 281.909 203.071 279.972 207.327 277.516C211.583 275.06 222.856 273.201 222.856 273.201L235.979 248.513Z" fill="#8BBDDB"/>
<path d="M273.524 213.168C273.524 213.168 282.295 216.553 285.503 226.657C288.71 236.761 279.12 262.341 282.435 274.1C285.75 285.86 285.235 308.064 274.883 312.752C264.531 317.44 243.3 309.052 238.743 296.221C234.184 283.392 236.152 234.788 244.914 218.257C253.675 201.726 271.415 210.052 273.524 213.168Z" fill="#F24052"/>
<path d="M263.445 256.762C265.759 259.255 271.705 254.811 271.705 254.811C271.705 254.811 271.584 276.861 265.176 278.551C258.768 280.242 242.436 261.182 243.108 256.001C243.78 250.819 258.315 251.231 263.445 256.762Z" fill="#8BBDDB"/>
<path d="M238.742 251.248C238.742 251.248 245.225 256.752 256.517 259.369C267.81 261.988 273.93 256.679 279.706 263.96C288.374 274.889 274.272 295.037 266.852 305.477C264.085 309.371 258.246 320.167 257.068 330.524C257.068 330.524 237.473 336.216 220.576 328.827L219.314 304.788C219.314 304.788 208.662 272.392 238.742 251.248Z" fill="#0E3944"/>
<path d="M259.001 274.635C259.001 274.635 267.954 253.298 270.548 251.935C273.141 250.574 279.716 253.843 281.036 256.762C282.356 259.68 281.036 266.047 281.036 266.047C281.036 266.047 273.974 257.988 259.001 274.635" fill="#8BBDDB"/>
<path d="M301.884 364.806C297.813 373.141 287.82 375.538 287.82 375.538C287.82 375.538 287.065 374.383 285.793 372.311C285.658 372.105 285.512 371.867 285.378 371.63C277.517 358.885 253.492 318.101 253.965 296.887C254.513 271.545 271.048 257.629 271.048 257.629C279.442 259.627 282.092 261.922 282.092 261.922C282.092 261.922 284.918 276.341 282.328 293.69C279.738 311.025 275.03 315.614 277.398 316.917C279.753 318.205 277.398 320.795 277.398 320.795C277.398 320.795 291.329 340.203 293.934 346.242C295.622 350.181 298.494 356.871 300.285 361.046C300.404 361.342 300.522 361.638 300.64 361.905C301.396 363.666 301.884 364.806 301.884 364.806Z" fill="#6097B2"/>
<path d="M277.687 261.918C277.687 261.918 267.714 269.312 273.524 280.608L301.17 309.228C285.996 325.396 284.492 332.034 273.524 339.489L277.687 345.936C277.687 345.936 316.1 316.413 316.158 309.228C316.182 306.152 292.694 268.941 277.687 261.918Z" fill="#FF8B66"/>
<path d="M272.918 339.49C272.918 339.49 267.649 340.074 264.33 340.905C261.013 341.734 256.589 342.564 256.45 343.254C256.311 343.946 263.778 343.254 263.778 343.254C263.778 343.254 257.694 345.754 257.557 346.717C257.418 347.68 265.298 346.02 265.298 346.02C265.298 346.02 260.321 349.062 260.598 349.892C260.874 350.721 267.005 348.646 267.005 348.646C267.005 348.646 265.865 351.55 264.683 352.933C264.683 352.933 265.87 353.585 268.281 350.909C270.69 348.232 274.538 349.092 277.583 346.717C280.63 344.341 275.691 339.133 272.918 339.49Z" fill="#FF8B66"/>
<path d="M244.669 254.799C244.669 254.799 237.081 259.701 232.289 271.544C227.496 283.387 212.374 305.672 208.833 311.431C205.29 317.188 207.758 348.523 207.758 348.523C207.758 348.523 203.317 329.524 201.344 322.123C199.369 314.721 207.716 296.432 208.97 295.46C210.225 294.489 216.64 296.267 215.406 288.84C214.173 281.413 231.384 249.415 235.978 248.513C235.978 248.513 243.338 249.896 244.669 254.799Z" fill="#6097B2"/>
<path d="M221.205 256.4C221.072 256.652 220.924 256.903 220.747 257.14C219.029 259.612 215.832 261.582 215.832 261.582C215.832 261.582 210.044 269.694 209.984 270.627C209.925 271.426 199.933 278.679 195.492 278.531H195.477C194.871 278.516 194.367 278.354 194.012 278.028C191.376 275.542 202.983 254.668 205.543 250.168C205.707 249.872 205.84 249.65 205.928 249.502C205.988 249.383 206.032 249.31 206.032 249.31C206.032 249.31 203.989 241.7 212.516 243.122C219.607 244.291 221.013 249.931 221.753 253.706C221.931 254.61 221.679 255.527 221.205 256.4Z" fill="#6097B2"/>
<path d="M191.432 264.288C197.289 256.588 217.9 241.655 228.756 237.235L231.471 242.28C231.471 242.28 210.493 260.723 205.564 268.612C200.636 276.502 194.532 279.764 188.699 277.138C182.865 274.51 190.2 265.908 191.432 264.288Z" fill="#FF8B66"/>
<path d="M219.162 254.817L218.051 256.09L217.488 256.741L215.654 258.843C215.654 258.843 211.035 264.439 211.212 266.689C211.346 268.302 202.448 275.527 195.491 278.531C192.663 279.761 190.147 280.294 188.682 279.45C183.648 276.549 184.774 267.829 187.631 261.922C190.118 256.771 201.116 250.123 203.944 248.495C204.299 248.274 204.522 248.141 204.595 248.111L204.61 248.095L205.66 244.01C205.66 244.01 209.495 241.701 212.515 243.122C212.515 243.122 205.854 243.403 206.948 245.994C208.074 248.599 217.311 254.727 219.162 254.817Z" fill="#8BBDDB"/>
<path d="M243.351 233.455C236.646 236.208 237.607 242.278 231.464 242.278C227.659 242.278 227.156 237.926 227.156 237.926C228.874 234.21 229.968 227.874 230.206 224.854C230.458 221.835 231.464 223.004 231.464 223.004C231.464 222.723 231.45 222.456 231.434 222.19C231.346 220.162 230.975 218.682 232.307 219.555C233.818 220.531 234.336 226.275 234.336 226.275C235.579 217.896 233.728 216.654 235.179 217.394C237.163 218.4 237.178 225.802 237.178 226.024C238.776 221.154 238.347 218.371 239.458 219.48C240.583 220.606 238.895 229.547 238.23 232.834C238.082 233.574 237.978 234.032 237.978 234.032C243.292 231.427 243.351 233.455 243.351 233.455Z" fill="#FF8B66"/>
<path d="M238.229 232.834C238.081 233.574 237.977 234.032 237.977 234.032C237.977 234.032 235.519 233.796 233.729 236.446C233.729 236.446 234.231 232.892 238.229 232.834Z" fill="#EF6E4B"/>
<path d="M231.834 229.014C231.878 228.303 232.174 224.233 231.464 223.003C231.464 222.722 231.448 222.457 231.434 222.19C232.974 222.515 231.996 228.155 231.834 229.014Z" fill="#EF6E4B"/>
<path d="M235.994 264.33C235.994 264.33 240.526 252.048 241.967 249.306C243.41 246.564 250.918 247.033 256.601 248.094C262.283 249.154 263.446 256.762 263.446 256.762C263.446 256.762 246.158 248.605 235.994 264.33Z" fill="#8BBDDB"/>
<path d="M265.177 240.157C265.177 240.157 259.747 250.182 259.833 261.3C259.833 261.3 251.014 267.293 247.859 259.786C247.859 259.786 251.209 249.952 249.59 236.676C248.506 227.785 265.177 240.157 265.177 240.157Z" fill="#EF6E4B"/>
<path d="M247.859 226.247C247.859 226.247 246.245 220.5 243.373 224.54C240.047 229.22 243.437 233.769 245.212 232.684C246.987 231.597 247.859 226.247 247.859 226.247Z" fill="#FF8B66"/>
<path d="M273.493 241.023C273.493 241.023 279.244 239.423 277.279 243.972C275.001 249.244 269.353 248.703 269.361 246.623C269.369 244.543 273.493 241.023 273.493 241.023Z" fill="#FF8B66"/>
<path d="M250.211 251.31C242.042 246.71 240.437 238.778 249.449 222.774C254.097 214.52 261.149 211.822 270.298 216.974C279.447 222.126 280.45 229.36 275.802 237.614C266.118 254.81 258.65 256.062 250.211 251.31Z" fill="#FF8B66"/>
<path d="M269.882 241.799C269.564 242.7 268.39 243.108 267.262 242.71C266.136 242.31 265.48 241.255 265.798 240.354C266.118 239.452 267.29 239.044 268.418 239.443C269.546 239.843 270.201 240.898 269.882 241.799Z" fill="#DB614D"/>
<path d="M252.828 232.785C252.306 233.586 251.07 233.706 250.068 233.053C249.066 232.399 248.678 231.219 249.2 230.418C249.723 229.617 250.959 229.497 251.96 230.151C252.963 230.805 253.351 231.983 252.828 232.785Z" fill="#DB614D"/>
<path d="M271.052 231.452C270.842 231.452 270.652 231.31 270.598 231.098C270.136 229.276 268.114 228.202 268.094 228.193C267.865 228.073 267.777 227.789 267.896 227.56C268.016 227.33 268.296 227.241 268.528 227.361C268.626 227.413 270.941 228.644 271.505 230.869C271.569 231.118 271.417 231.373 271.166 231.437C271.128 231.448 271.089 231.452 271.052 231.452Z" fill="#1A4850"/>
<path d="M259.833 223.471C259.75 223.471 259.668 223.45 259.592 223.404C259.572 223.392 257.602 222.223 255.808 222.771C255.558 222.847 255.298 222.707 255.222 222.459C255.148 222.212 255.286 221.95 255.534 221.874C257.732 221.202 259.982 222.544 260.077 222.602C260.298 222.736 260.368 223.023 260.234 223.244C260.146 223.39 259.992 223.471 259.833 223.471Z" fill="#1A4850"/>
<path d="M267.676 235.328C267.104 236.343 266.184 236.908 265.621 236.59C265.057 236.272 265.064 235.194 265.634 234.179C266.206 233.164 267.126 232.599 267.689 232.916C268.253 233.234 268.248 234.314 267.676 235.328Z" fill="#1A4850"/>
<path d="M256.223 229.185C255.652 230.2 254.732 230.765 254.168 230.447C253.604 230.129 253.611 229.051 254.181 228.036C254.753 227.021 255.673 226.456 256.237 226.773C256.8 227.091 256.793 228.171 256.223 229.185Z" fill="#1A4850"/>
<path d="M252.254 239.601C252.254 239.601 256.94 243.177 260.327 243.286C260.327 243.286 256.726 246.22 254.138 244.317C251.548 242.414 252.254 239.601 252.254 239.601Z" fill="#1A4850"/>
<path d="M265.213 233.278C265.213 233.278 267.364 231.198 268.245 231.93C269.125 232.662 268.665 235.222 268.665 235.222L270.546 235.27L268.99 234.644C268.99 234.644 269.492 231.985 268.524 231.434C267.146 230.65 265.213 233.278 265.213 233.278Z" fill="#1A4850"/>
<path d="M257.109 229.118C257.109 229.118 257.772 226.2 256.689 225.827C255.606 225.454 253.658 227.175 253.658 227.175L252.64 225.59L253.984 226.595C253.984 226.595 255.996 224.788 256.969 225.331C258.354 226.103 257.109 229.118 257.109 229.118Z" fill="#1A4850"/>
<path d="M272.469 220.395C272.469 220.395 269.542 216.328 265.501 219.558C261.459 222.787 252.343 227.955 247.859 226.247C243.374 224.539 257.67 205.432 270.082 211.028C282.493 216.624 281.377 234.836 276.214 240.627C271.051 246.419 273.494 241.023 273.494 241.023C273.494 241.023 273.838 232.807 275.563 227.363C277.289 221.919 272.469 220.395 272.469 220.395Z" fill="#F24052"/>
<path d="M258.711 237.738C258.484 237.738 258.247 237.707 258.003 237.646L258.251 236.666C259.086 236.878 259.496 236.519 259.694 236.182C259.971 235.705 259.932 235.09 259.712 234.859C259.583 234.725 259.362 234.738 259.052 234.901L258.584 234.003C259.614 233.466 260.227 233.934 260.443 234.162C261 234.745 261.054 235.855 260.567 236.691C260.17 237.371 259.503 237.738 258.711 237.738Z" fill="#DB614D"/>
<path d="M318.537 308.094C318.049 315.274 300.285 338.649 297.323 339.477C296.554 339.685 295.769 340.114 295.029 340.617C294.718 340.839 294.407 341.077 294.111 341.313C292.423 342.675 291.15 344.243 291.15 344.243C285.969 343.903 271.418 337.167 276.095 335.687C276.377 335.599 276.687 335.435 277.027 335.199C277.221 335.066 277.427 334.918 277.635 334.726C283.142 330.107 293.859 311.366 293.934 309.945C293.993 308.39 295.843 308.094 295.843 308.094C295.843 308.094 285.733 293.246 279.87 291.455C274.009 289.663 271.047 282.573 271.047 282.573C265.259 258.073 282.09 261.922 282.09 261.922C294.495 269.309 319.025 300.899 318.537 308.094Z" fill="#8BBDDB"/>
<path d="M295.03 340.617C294.719 340.84 294.408 341.076 294.112 341.313C286.163 340.765 279.5 336.857 277.028 335.198C277.222 335.065 277.428 334.917 277.635 334.725C280.286 336.457 287.066 340.321 295.03 340.617Z" fill="#3E6575"/>
<path d="M221.205 256.4C221.072 256.652 220.924 256.903 220.747 257.14C219.607 257.096 218.525 256.963 217.489 256.74C212.235 255.675 208.193 252.73 205.543 250.168C204.936 249.576 204.404 249.014 203.945 248.495C204.3 248.274 204.521 248.14 204.596 248.111C204.981 248.54 205.425 249.014 205.928 249.502C208.564 252.092 212.664 255.112 218.052 256.09C219.059 256.282 220.109 256.386 221.205 256.4Z" fill="#3E6575"/>
<path d="M300.64 361.904C298.197 366.035 293.682 371.023 285.792 372.311C285.658 372.104 285.51 371.867 285.377 371.63C293.474 370.416 297.961 365.162 300.285 361.046C300.402 361.342 300.521 361.638 300.64 361.904Z" fill="#3E6575"/>
<path d="M165.914 496.601C165.914 496.601 164.064 498.422 162.14 501.767C160.214 505.113 162.332 508.191 153.021 515.949C153.021 515.949 134.234 504.95 125.753 490.813C125.753 490.813 125.901 486.771 130.001 485.823C132.206 485.321 138.276 488.163 144.109 489.258C144.938 489.406 145.766 489.539 146.581 489.599C147.602 489.687 148.609 489.702 149.572 489.583C150.46 489.495 151.304 489.303 152.088 488.977H152.102C154.086 488.163 155.656 486.549 156.47 483.722C156.47 483.722 161.458 486.565 158.128 491.375C158.128 491.375 164.049 488.785 165.914 496.601Z" fill="#CFD8DC"/>
<path d="M153.02 515.949C153.02 515.949 134.235 504.95 125.752 490.813C125.752 490.813 128.905 490.146 131.511 494.825C134.116 499.517 154.545 510.161 153.02 515.949Z" fill="#ADBEC4"/>
<path d="M153.094 493.714C151.57 496.127 151.599 491.671 149.571 489.583C150.459 489.495 151.303 489.302 152.087 488.977H152.102C153.005 489.954 154.293 491.834 153.094 493.714Z" fill="#ADBEC4"/>
<path d="M147.188 493.847C145.575 495.373 145.056 491.39 144.109 489.258C144.937 489.406 145.767 489.539 146.581 489.599C147.528 490.886 148.417 492.678 147.188 493.847Z" fill="#ADBEC4"/>
<path d="M281.485 545.407H254.913C254.913 545.407 253.802 541.706 254.913 537.635C255.386 535.874 258.139 534.231 260.701 531.937C261.411 531.299 262.093 530.634 262.729 529.878C263.233 529.286 263.691 528.635 264.075 527.939C264.565 527.095 264.949 526.178 265.171 525.171C265.601 523.158 265.438 520.789 264.283 517.947C264.283 517.947 273.327 516.053 276.555 520.982C276.555 520.982 276.866 518.702 279.738 520.227C279.738 520.227 279.323 524.801 279.886 528.635C280.449 532.454 284.017 533.565 281.485 545.407Z" fill="#CFD8DC"/>
<path d="M274.571 529.405C274.334 529.672 274.009 529.805 273.683 529.805C273.402 529.805 273.135 529.716 272.898 529.538C271.522 528.442 268.487 526.741 264.075 527.94C264.565 527.096 264.949 526.178 265.171 525.172C266.947 524.52 270.293 524.136 274.423 527.658C274.957 528.102 275.03 528.886 274.571 529.405Z" fill="#ADBEC4"/>
<path d="M272.336 533.816L272.188 534.039C271.834 534.586 271.123 534.764 270.56 534.438C268.754 533.372 264.698 531.359 260.7 531.936C261.411 531.3 262.092 530.634 262.728 529.879C264.698 529.42 268.414 529.168 272.07 532.203C272.544 532.603 272.676 533.298 272.336 533.816Z" fill="#ADBEC4"/>
</g>
<defs>
<clipPath id="clip0_572_18">
<rect width="666.667" height="666.667" fill="white"/>
</clipPath>
</defs>
</svg>
