<svg width="6141" height="4065" viewBox="0 0 6141 4065" fill="none" xmlns="http://www.w3.org/2000/svg">
<path d="M6017.61 3610.83C6017.61 3656.72 5866.23 3693.92 5679.49 3693.92C5492.75 3693.92 5341.37 3656.72 5341.37 3610.83C5341.37 3564.95 5492.75 3527.73 5679.49 3527.73C5866.23 3527.73 6017.61 3564.95 6017.61 3610.83Z" fill="#EF6E4B"/>
<path d="M5593.92 3072.52C5640.67 3104.67 5634.81 3225.21 5634.81 3225.21C5634.81 3225.21 5490.31 3067.07 5307.61 3113.41C5307.61 3113.41 5506.67 3012.53 5593.92 3072.52Z" fill="#FF8B66"/>
<path d="M5672.19 3290.39C5611.53 3131.28 5399.08 3056.01 5396.95 3055.28L5398.23 3051.59C5400.39 3052.33 5614.53 3128.17 5675.84 3289L5672.19 3290.39" fill="#100F0D"/>
<path d="M5593.92 3072.52C5555.75 3028.89 5413.95 2977.08 5326.69 3072.52C5239.44 3167.96 5152.19 3088.88 5152.19 3088.88C5152.19 3088.88 5206.72 3195.23 5307.61 3184.32C5408.49 3173.41 5446.67 3042.52 5593.92 3072.52Z" fill="#FFD6C9"/>
<path d="M5894.37 2800.53L5700.25 3214.31L5713.89 3034.35L5894.37 2800.53Z" fill="#FF8B66"/>
<path d="M5675.03 3318.51L5671.27 3317.43L5785.64 2919.28L5789.4 2920.36L5675.03 3318.51Z" fill="#100F0D"/>
<path d="M6131.09 2764.4C6131.09 2764.4 6125.64 2876.19 5948.4 2919.81C5771.16 2963.45 5713.89 3034.35 5713.89 3034.35C5713.89 3034.35 5782.07 2698.95 6131.09 2764.4Z" fill="#FFD6C9"/>
<path d="M5618.45 2870.73C5618.45 2870.73 5525.75 2783.48 5433.04 2816.2C5340.33 2848.92 5277.61 2947.08 5152.19 2895.28C5152.19 2895.28 5315.79 3004.35 5411.23 2982.53C5506.67 2960.72 5553.01 2843.47 5618.45 2870.73Z" fill="#FFD6C9"/>
<path d="M5593.92 2737.12C5563.92 2668.96 5610.28 2494.44 5713.89 2439.91C5817.51 2385.37 5940.21 2434.45 5983.84 2352.65C5983.84 2352.65 5941.16 2568.07 5798.43 2568.07C5618.45 2568.07 5593.92 2737.12 5593.92 2737.12" fill="#FFD6C9"/>
<path d="M5514.84 2584.43C5514.84 2584.43 5476.67 2448.09 5340.33 2502.63C5340.33 2502.63 5427.59 2578.97 5514.84 2584.43Z" fill="#FFD6C9"/>
<path d="M5514.84 2508.08C5514.84 2508.08 5452.12 2379.92 5533.93 2325.39C5533.93 2325.39 5583.01 2407.19 5514.84 2508.08Z" fill="#FFD6C9"/>
<path d="M5593.76 2730.23L5589.85 2730.03C5593.88 2651.88 5621.04 2591.39 5670.57 2550.21C5709.95 2517.51 5762.37 2496.84 5830.87 2487.05C5942.88 2471.05 5981.6 2353.25 5981.97 2352.07L5985.71 2353.24C5985.32 2354.45 5945.84 2474.59 5831.42 2490.93C5678.67 2512.75 5600.93 2591.03 5593.76 2730.23Z" fill="#100F0D"/>
<path d="M5669.48 3410.84L5665.6 3410.44C5665.76 3408.85 5681.75 3249.73 5665.59 3018.12C5652.96 2837.04 5594.84 2740.99 5556.37 2677.43C5545.24 2659.01 5535.61 2643.12 5529.4 2628.84C5506.88 2577.01 5507.44 2471.39 5530.97 2331.4C5531.55 2328.01 5531.91 2325.87 5531.99 2325.17L5535.87 2325.6C5535.79 2326.32 5535.43 2328.53 5534.83 2332.05C5511.41 2471.29 5510.76 2576.15 5533 2627.28C5539.09 2641.32 5548.65 2657.12 5559.72 2675.4C5598.37 2739.29 5656.79 2835.83 5669.49 3017.84C5685.68 3249.83 5669.64 3409.25 5669.48 3410.84" fill="#100F0D"/>
<path d="M5261.17 2926.96C5231.45 2926.96 5202.04 2917.32 5151.45 2897.09L5152.91 2893.47C5258.24 2935.6 5270.63 2931.19 5389.15 2889C5407.99 2882.29 5429.35 2874.69 5454.21 2866.16C5524.93 2841.89 5579.53 2840.92 5616.52 2863.28C5651.31 2884.31 5656.87 2918.09 5657.09 2919.52L5653.23 2920.12C5653.17 2919.79 5647.65 2886.63 5614.43 2866.59C5578.48 2844.91 5525 2846 5455.48 2869.85C5430.64 2878.39 5409.29 2885.99 5390.45 2892.69C5327.47 2915.11 5294.13 2926.96 5261.17 2926.96" fill="#100F0D"/>
<path d="M5513.6 2585.93C5425.23 2513.63 5341.11 2510.07 5340.27 2510.04L5340.39 2506.12C5341.24 2506.15 5426.61 2509.72 5516.08 2582.91L5513.6 2585.93Z" fill="#100F0D"/>
<path d="M5777.87 2896.49L5775.05 2893.77C5858.88 2806.95 6035.95 2806.07 6038.37 2806.07H6038.39L6038.37 2809.97C6036.03 2809.97 5860.55 2810.84 5777.87 2896.49Z" fill="#100F0D"/>
<path d="M5737.39 3621.19H5601.21C5578.52 3621.19 5559.01 3605.09 5554.69 3582.83L5525.77 3434.01C5520.09 3404.76 5542.51 3377.57 5572.31 3377.57H5766.29C5796.09 3377.57 5818.51 3404.76 5812.83 3434.01L5783.91 3582.83C5779.59 3605.09 5760.08 3621.19 5737.39 3621.19" fill="#F68164"/>
<path d="M5002.57 3689.84C5002.57 3890.55 4207.56 4053.24 3226.87 4053.24C2246.16 4053.24 1451.16 3890.55 1451.16 3689.84C1451.16 3489.13 2246.16 3326.43 3226.87 3326.43C4207.56 3326.43 5002.57 3489.13 5002.57 3689.84Z" fill="#EF6E4B"/>
<path d="M924.648 1588.6L494.362 1533.67V1183.36L924.648 1259.68V1588.6Z" fill="#F68164"/>
<path d="M496.317 1531.95L922.693 1586.39V1261.32L496.317 1185.69V1531.95ZM926.604 1590.83L492.406 1535.39V1181.03L494.704 1181.43L926.604 1258.04V1590.83Z" fill="white"/>
<path d="M1402.73 1649.64L1034.12 1602.57V1279.09L1402.73 1344.48V1649.64Z" fill="#F68164"/>
<path d="M1036.07 1600.85L1400.77 1647.41V1346.12L1036.07 1281.43V1600.85V1600.85ZM1404.69 1651.85L1032.16 1604.31V1276.76L1404.69 1342.84V1651.85Z" fill="white"/>
<path d="M924.648 2010.97L494.362 1983.51V1633.19L924.648 1682.05V2010.97Z" fill="#F68164"/>
<path d="M496.317 1981.67L922.693 2008.89V1683.79L496.317 1635.39V1981.67ZM926.604 2013.05L924.524 2012.92L492.406 1985.33V1631L494.584 1631.25L926.604 1680.31V2013.05Z" fill="white"/>
<path d="M1402.73 2041.49L1034.12 2017.96V1694.48L1402.73 1736.33V2041.49Z" fill="#F68164"/>
<path d="M1036.07 2016.12L1400.77 2039.4V1738.08L1036.07 1696.67V2016.12ZM1404.69 2043.57L1032.16 2019.8V1692.29L1404.69 1734.59V2043.57" fill="white"/>
<path d="M924.648 2433.33H494.362V2083.03L924.648 2104.41V2433.33Z" fill="#F68164"/>
<path d="M496.317 2431.39H922.693V2106.28L496.317 2085.08V2431.39ZM926.604 2435.29H492.406V2080.97L926.604 2102.56V2435.29Z" fill="white"/>
<path d="M1402.73 2433.33H1034.12V2109.85L1402.73 2128.19V2433.33Z" fill="#F68164"/>
<path d="M1036.07 2431.39H1400.77V2130.04L1036.07 2111.91V2431.39ZM1404.69 2435.29H1032.16V2107.8L1404.69 2126.32V2435.29Z" fill="white"/>
<path d="M1075.69 25.9733L1032.57 7.43997L1035.66 0.252989L1078.78 18.7863L1075.69 25.9733ZM1449.39 186.586L1118.81 44.5066L1121.9 37.3197L1452.48 179.4L1449.39 186.586V186.586ZM1535.63 223.653L1492.51 205.12L1495.6 197.933L1538.72 216.467L1535.63 223.653ZM1909.32 384.267L1866.2 365.733L1869.29 358.547L1912.41 377.08L1909.32 384.267ZM1972.72 749.267H1964.89V408.147L1952.44 402.8L1955.53 395.613L1972.72 403V749.267ZM1972.72 843.133H1964.89V796.2H1972.72V843.133ZM1972.72 1249.88H1964.89V1202.95H1972.72V1249.88ZM1972.72 1656.64H1964.89V1296.81H1972.72V1656.64ZM1972.72 1750.51H1964.89V1703.57H1972.72V1750.51ZM1972.72 2157.25H1964.89V2110.32H1972.72V2157.25ZM1972.72 2564H1964.89V2204.19H1972.72V2564V2564ZM1972.72 2657.87H1964.89V2610.93H1972.72V2657.87ZM1972.72 3064.63H1964.89V3017.69H1972.72V3064.63ZM1610.05 3186.39L1608.36 3178.75L1959.71 3101.11L1961.39 3108.75L1610.05 3186.39ZM1518.4 3206.64L1516.71 3199L1562.53 3188.88L1564.23 3196.51L1518.4 3206.64V3206.64ZM1121.23 3294.41L1119.54 3286.77L1165.37 3276.65L1167.05 3284.29L1121.23 3294.41V3294.41ZM724.059 3382.19L722.372 3374.55L1073.71 3296.91L1075.4 3304.55L724.059 3382.19ZM632.405 3402.44L630.716 3394.8L676.544 3384.68L678.232 3392.32L632.405 3402.44ZM235.237 3490.21L233.548 3482.57L279.376 3472.44L281.064 3480.08L235.237 3490.21V3490.21ZM1.78219 3541.8L0.0947266 3534.17L187.721 3492.71L189.409 3500.35L1.78219 3541.8" fill="white"/>
<path d="M2015.47 3109.44L1968.6 3107L1969.01 3099.19L2015.88 3101.63L2015.47 3109.44ZM2421.67 3130.6L2062.33 3111.88L2062.75 3104.07L2422.08 3122.77L2421.67 3130.6ZM2515.41 3135.47L2468.55 3133.03L2468.95 3125.21L2515.81 3127.65L2515.41 3135.47ZM2921.61 3156.61L2874.75 3154.17L2875.15 3146.36L2922.01 3148.8L2921.61 3156.61ZM3327.81 3177.77L2968.48 3159.07L2968.89 3151.24L3328.21 3169.95L3327.81 3177.77ZM3421.56 3182.65L3374.68 3180.21L3375.09 3172.4L3421.96 3174.84L3421.56 3182.65ZM3827.76 3203.79L3780.88 3201.35L3781.29 3193.53L3828.16 3195.97L3827.76 3203.79ZM4233.96 3224.95L3874.63 3206.24L3875.03 3198.41L4234.36 3217.12L4233.96 3224.95ZM4327.69 3229.83L4280.83 3227.39L4281.23 3219.57L4328.11 3222.01L4327.69 3229.83ZM4733.89 3250.96L4687.03 3248.53L4687.43 3240.72L4734.31 3243.15L4733.89 3250.96ZM5140.11 3272.12L4780.77 3253.4L4781.17 3245.59L5140.51 3264.29L5140.11 3272.12ZM5233.84 3277L5186.97 3274.56L5187.37 3266.73L5234.24 3269.19L5233.84 3277ZM5640.04 3298.15L5593.17 3295.71L5593.57 3287.89L5640.44 3290.33L5640.04 3298.15ZM6046.24 3319.29L5686.91 3300.59L5687.32 3292.77L6046.64 3311.47L6046.24 3319.29ZM6139.97 3324.17L6093.11 3321.73L6093.52 3313.92L6140.39 3316.36L6139.97 3324.17Z" fill="white"/>
<path d="M4260.48 1689.09L4716.39 1629.83C4792.32 1619.96 4859.63 1679.08 4859.63 1755.65V2028.93C4859.63 2069.35 4826.87 2102.12 4786.45 2102.12C4748.36 2102.12 4716.64 2072.89 4713.52 2034.93L4694.51 1825.43L4323.48 1884.2C4284.73 1898.44 4241.88 1877.83 4228.83 1838.65L4210.23 1782.85C4196.93 1742.97 4219.91 1700.11 4260.48 1689.09" fill="#C5DDED"/>
<path d="M4696.25 1823.16L4696.45 1825.24L4715.47 2034.76C4718.48 2071.44 4749.67 2100.16 4786.45 2100.16C4825.72 2100.16 4857.67 2068.21 4857.67 2028.93V1755.65C4857.67 1719.72 4842.19 1685.51 4815.19 1661.79C4788.19 1638.08 4752.28 1627.13 4716.64 1631.76L4260.87 1691.01C4241.83 1696.23 4226.2 1708.67 4216.88 1726.07C4207.53 1743.52 4205.83 1763.45 4212.08 1782.24L4230.69 1838.04C4236.83 1856.48 4249.87 1871.27 4267.37 1879.69C4284.88 1888.12 4304.57 1889.07 4322.81 1882.37L4696.25 1823.16V1823.16ZM4786.45 2104.07C4747.64 2104.07 4714.75 2073.77 4711.57 2035.11L4692.75 1827.68L4323.79 1886.13C4304.92 1893.11 4284.15 1892.11 4265.67 1883.21C4247.2 1874.33 4233.47 1858.72 4226.97 1839.28L4208.37 1783.47C4201.77 1763.67 4203.57 1742.63 4213.43 1724.23C4223.29 1705.83 4239.81 1692.68 4259.96 1687.21L4260.23 1687.16L4716.13 1627.89C4752.88 1623.11 4789.92 1634.4 4817.77 1658.85C4845.61 1683.31 4861.59 1718.59 4861.59 1755.65V2028.93C4861.59 2070.36 4827.88 2104.07 4786.45 2104.07" fill="#262E6C"/>
<path d="M4640.95 2209.23L4385.31 2778.59C4359.8 2835.41 4349.31 2897.84 4354.84 2959.88L4408.88 3565.92L4292.85 3744.43L4506.13 3690.32C4557.31 3677.33 4594.37 3633 4598.12 3580.35L4640.95 2976.83L4957.81 2298.48L4640.95 2209.23Z" fill="#C5DDED"/>
<path d="M4642.04 2211.56L4387.09 2779.39C4361.77 2835.79 4351.29 2898.13 4356.79 2959.71L4410.89 3566.41L4410.52 3566.99L4297.21 3741.31L4505.65 3688.41C4556.11 3675.61 4592.48 3632.13 4596.16 3580.21L4639.03 2976.33L4639.17 2976L4955.07 2299.73L4642.04 2211.56ZM4288.49 3747.56L4406.88 3565.41L4352.89 2960.05C4347.35 2897.81 4357.93 2834.79 4383.53 2777.79L4639.85 2206.88L4960.55 2297.21L4642.87 2977.33L4600.07 3580.48C4596.27 3634.09 4558.71 3678.99 4506.61 3692.2L4288.49 3747.56" fill="#262E6C"/>
<path d="M4197.33 1553.59C4170.8 1374.48 3993.36 1406.87 3932.53 1510.64C3871.69 1614.41 4079.24 1843.44 4147.24 1782.6C4215.23 1721.77 4211.64 1650.2 4197.33 1553.59" fill="white"/>
<path d="M4074.68 1427.96C4021.16 1427.96 3963.85 1461.07 3934.21 1511.63C3894.55 1579.29 3971.13 1697.29 4039.24 1753C4084.44 1789.96 4124.32 1800.48 4145.93 1781.15C4214.07 1720.19 4209.41 1648.49 4195.4 1553.87C4185.09 1484.28 4150.44 1440.33 4097.84 1430.13C4090.27 1428.67 4082.52 1427.96 4074.68 1427.96ZM4119.16 1794.52C4096.52 1794.52 4067.75 1781.36 4036.76 1756.03C3967.6 1699.45 3890.08 1579.17 3930.84 1509.65C3965.61 1450.32 4037.73 1414.48 4098.59 1426.29C4152.95 1436.84 4188.69 1481.93 4199.27 1553.29C4213.47 1649.13 4218.13 1721.79 4148.53 1784.07C4140.69 1791.08 4130.73 1794.52 4119.16 1794.52" fill="#100F0D"/>
<path d="M3946.87 2218.63H3755.19C3751.43 2218.63 3748.39 2215.57 3748.39 2211.81V2179.85C3748.39 2176.09 3751.43 2173.04 3755.19 2173.04H3946.87C3950.63 2173.04 3953.68 2176.09 3953.68 2179.85V2211.81C3953.68 2215.57 3950.63 2218.63 3946.87 2218.63Z" fill="white"/>
<path d="M3768.36 2175C3758.43 2175 3750.35 2183.08 3750.35 2193.01V2198.65C3750.35 2208.59 3758.43 2216.67 3768.36 2216.67H3933.69C3943.64 2216.67 3951.72 2208.59 3951.72 2198.65V2193.01C3951.72 2183.08 3943.64 2175 3933.69 2175H3768.36ZM3933.69 2220.59H3768.36C3756.27 2220.59 3746.43 2210.75 3746.43 2198.65V2193.01C3746.43 2180.92 3756.27 2171.08 3768.36 2171.08H3933.69C3945.79 2171.08 3955.63 2180.92 3955.63 2193.01V2198.65C3955.63 2210.75 3945.79 2220.59 3933.69 2220.59Z" fill="#100F0D"/>
<path d="M3810.87 2207.52C3810.87 2275.01 3685.99 2329.72 3531.93 2329.72C3377.89 2329.72 3253.01 2275.01 3253.01 2207.52C3253.01 2066.41 3315.49 2048.56 3534.17 2048.56C3815.32 2048.56 3810.87 2140.04 3810.87 2207.52Z" fill="#A8CFEF"/>
<path d="M3534.17 2050.52C3426.2 2050.52 3355.31 2054.83 3312.48 2076.87C3271.63 2097.88 3254.96 2135.73 3254.96 2207.52C3254.96 2273.83 3379.21 2327.76 3531.93 2327.76C3684.65 2327.76 3808.91 2273.83 3808.91 2207.52V2204.4C3808.95 2172.53 3808.97 2136.43 3779.75 2107.17C3741.67 2069.05 3661.33 2050.52 3534.17 2050.52V2050.52ZM3531.93 2331.67C3377.05 2331.67 3251.05 2275.97 3251.05 2207.52C3251.05 2066.64 3311.39 2046.6 3534.17 2046.6C3662.43 2046.6 3743.67 2065.51 3782.52 2104.4C3812.89 2134.81 3812.85 2171.79 3812.83 2204.41L3812.81 2207.52C3812.81 2275.97 3686.81 2331.67 3531.93 2331.67" fill="#100F0D"/>
<path d="M3810.87 2153.97C3810.87 2221.45 3685.99 2276.16 3531.93 2276.16C3377.89 2276.16 3253.01 2221.45 3253.01 2153.97C3253.01 2086.48 3377.89 2031.77 3531.93 2031.77C3685.99 2031.77 3810.87 2086.48 3810.87 2153.97Z" fill="white"/>
<path d="M3531.93 2033.73C3379.21 2033.73 3254.96 2087.67 3254.96 2153.97C3254.96 2220.27 3379.21 2274.21 3531.93 2274.21C3684.65 2274.21 3808.91 2220.27 3808.91 2153.97C3808.91 2087.67 3684.65 2033.73 3531.93 2033.73ZM3531.93 2278.12C3377.05 2278.12 3251.05 2222.43 3251.05 2153.97C3251.05 2085.51 3377.05 2029.81 3531.93 2029.81C3686.81 2029.81 3812.81 2085.51 3812.81 2153.97C3812.81 2222.43 3686.81 2278.12 3531.93 2278.12Z" fill="#100F0D"/>
<path d="M3770.12 2153.97C3770.12 2211.6 3663.48 2258.31 3531.93 2258.31C3400.4 2258.31 3293.76 2211.6 3293.76 2153.97C3293.76 2096.35 3400.4 2049.63 3531.93 2049.63C3663.48 2049.63 3770.12 2096.35 3770.12 2153.97Z" fill="#DB614D"/>
<path d="M4156.4 2236H3875.89C3859.69 2236 3846.56 2222.87 3846.56 2206.67V2185C3846.56 2168.8 3859.69 2155.67 3875.89 2155.67H4156.4C4172.61 2155.67 4185.73 2168.8 4185.73 2185V2206.67C4185.73 2222.87 4172.61 2236 4156.4 2236Z" fill="#DB614D"/>
<path d="M4217.59 1699.69C4161.09 1794.55 4183.87 1916.6 4270.75 1984.71L4676.65 2302.95L4578.2 2923.96C4566.61 2997.03 4570.85 3071.73 4590.63 3143.03L4730.2 3646.25L4574 3829.23L4852.2 3788.01C4898.17 3781.2 4929.91 3738.36 4923.03 3692.39L4823.92 3030.39L5056.24 2448.77C5119.72 2325.01 5094.88 2174.31 4995.03 2077.47L4554.13 1649.92C4451.49 1556.2 4288.69 1580.28 4217.59 1699.69Z" fill="white"/>
<path d="M4217.59 1699.69L4219.27 1700.69C4163.45 1794.43 4186.09 1915.87 4271.95 1983.17L4678.76 2302.11L4580.13 2924.27C4568.51 2997.57 4572.68 3071 4592.51 3142.51L4732.37 3646.72L4578.88 3826.52L4851.91 3786.08C4873.63 3782.87 4892.79 3771.37 4905.87 3753.72C4918.93 3736.08 4924.35 3714.4 4921.09 3692.68L4821.91 3030.15L4822.11 3029.65L5054.41 2448.05C5118.01 2324.05 5093.57 2175.76 4993.67 2078.88L4552.77 1651.32C4504.33 1607.09 4439.31 1587.21 4374.32 1596.81C4309.37 1606.43 4252.85 1644.29 4219.27 1700.69L4217.59 1699.69ZM4569.13 3831.92L4728.04 3645.77L4588.75 3143.55C4568.75 3071.51 4564.56 2997.52 4576.27 2923.65L4674.53 2303.77L4269.53 1986.25C4182.13 1917.73 4159.08 1794.11 4215.91 1698.69L4217.59 1699.69L4215.91 1698.69C4250.11 1641.27 4307.63 1602.73 4373.75 1592.95C4439.87 1583.17 4506.09 1603.41 4555.45 1648.47L4996.39 2076.07C5045.68 2123.87 5077.64 2184.96 5088.81 2252.71C5099.97 2320.47 5089.32 2388.57 5057.97 2449.67L4825.93 3030.61L4924.96 3692.11C4928.37 3714.85 4922.69 3737.57 4909 3756.05C4895.31 3774.53 4875.24 3786.57 4852.48 3789.95L4569.13 3831.92Z" fill="#100F0D"/>
<path d="M4677.44 2301.08L4347.99 2042.79L4292.24 1966.03L4379.61 1724.72L4683.13 2061.95C4722.96 2106.19 4733.51 2169.51 4710.17 2224.27L4677.44 2301.08" fill="#C5DDED"/>
<path d="M4676.65 2302.95L4352.19 2048.56L4347.99 2042.79L4677.44 2301.08L4676.65 2302.95Z" fill="#100F0D"/>
<path d="M4227.35 1739.17C4280.13 1686.4 4367.79 1694.09 4410.56 1755.27L4649.72 2097.29C4690.95 2156.24 4651.92 2237.6 4580.15 2242.35L4136.65 2271.71L4085.87 2290.75C4028.92 2312.09 3964.92 2301.44 3917.97 2262.77V2236L4025.08 2142.28L4114.33 2155.67L4457.97 2111.04L4233.19 1914.35C4180.95 1868.64 4178.27 1788.27 4227.35 1739.17" fill="white"/>
<path d="M3919.92 2261.85C3966.12 2299.47 4029.36 2309.84 4085.17 2288.92L4136.52 2269.75L4580.01 2240.4C4613 2238.21 4641.24 2219.12 4655.53 2189.31C4669.84 2159.49 4667.07 2125.51 4648.12 2098.41L4408.96 1756.39C4388.91 1727.71 4357.4 1709.49 4322.53 1706.44C4287.71 1703.36 4253.48 1715.81 4228.73 1740.56L4227.35 1739.17L4228.73 1740.56C4205.39 1763.92 4193.12 1794.96 4194.23 1827.97C4195.32 1860.97 4209.61 1891.13 4234.47 1912.88L4462.52 2112.41L4114.32 2157.64L4025.68 2144.35L3919.92 2236.88V2261.85ZM4026.31 2303.48C3986.92 2303.48 3947.96 2290.01 3916.73 2264.28L3916.01 2263.69V2235.11L4024.47 2140.21L4114.35 2153.69L4453.43 2109.65L4231.89 1915.83C4206.23 1893.36 4191.45 1862.2 4190.32 1828.09C4189.17 1794 4201.84 1761.92 4225.97 1737.8C4251.53 1712.23 4286.85 1699.37 4322.88 1702.55C4358.91 1705.71 4391.44 1724.51 4412.17 1754.15L4651.33 2096.17C4671.09 2124.44 4673.99 2159.89 4659.07 2190.99C4644.15 2222.09 4614.69 2242.03 4580.27 2244.31L4137.07 2273.63L4086.55 2292.57C4067.03 2299.89 4046.61 2303.48 4026.31 2303.48" fill="#100F0D"/>
<path d="M2199.67 1419.11L2450.71 1728.95C2498.05 1787.4 2492.8 1872.36 2438.6 1924.53L2154.85 2197.59L2124.37 2050.16L2334.76 1832.29L2103.15 1606.56L2199.67 1419.11Z" fill="#C5DDED"/>
<path d="M2126.49 2050.77L2156.05 2193.72L2437.24 1923.12C2491.13 1871.25 2496.28 1788.31 2449.19 1730.17L2200.04 1422.67L2105.55 1606.16L2337.52 1832.25L2126.49 2050.77ZM2153.65 2201.45L2122.25 2049.55L2122.97 2048.8L2332 1832.33L2100.73 1606.95L2199.31 1415.55L2452.23 1727.72C2500.6 1787.43 2495.32 1872.65 2439.95 1925.93L2153.65 2201.45Z" fill="#262E6C"/>
<path d="M2184.01 2124.71L2319.12 2837.53L2263.21 3545.71L2384.35 3690.15L2090.71 3591.4C2041.51 3574.85 2009.56 3527.32 2012.81 3475.52L2055.21 2800.27L1864.4 2094.43L2184.01 2124.71" fill="#C5DDED"/>
<path d="M1867.03 2096.64L2057.19 2800.07L2057.17 2800.39L2014.77 3475.64C2011.57 3526.48 2043.07 3573.31 2091.33 3589.55L2378.39 3686.07L2261.2 3546.36L2317.15 2837.64L2182.36 2126.52L1867.03 2096.64ZM2390.31 3694.21L2090.09 3593.25C2040.13 3576.45 2007.56 3528 2010.87 3475.4L2053.25 2800.47L1861.79 2092.21L2185.65 2122.89L2185.93 2124.35L2321.09 2837.43L2321.07 2837.69L2265.23 3545.07L2390.31 3694.21" fill="#262E6C"/>
<path d="M1830.61 1393.24H2126.16C2202.75 1393.24 2258.81 1465.39 2239.91 1539.6L2157.85 1861.75C2153.6 1878.44 2153.08 1895.87 2156.32 1912.79L2184.01 2124.71H1694.81L1694 1948.69C1694.55 1944.91 1694.89 1941.08 1695.05 1937.25L1713.35 1505.65C1716 1442.81 1767.72 1393.24 1830.61 1393.24" fill="white"/>
<path d="M1696.76 2122.75H2181.79L2154.37 1913.04C2151.12 1896.07 2151.67 1878.12 2155.96 1861.25L2238.01 1539.11C2246.88 1504.33 2239.32 1468.12 2217.29 1439.79C2195.27 1411.45 2162.05 1395.2 2126.16 1395.2H1830.61C1768.57 1395.2 1717.92 1443.75 1715.29 1505.73L1697.01 1937.35C1696.84 1941.23 1696.48 1945.13 1695.95 1948.97L1696.76 2122.75V2122.75ZM2186.24 2126.67H1692.87L1692.05 1948.71C1692.6 1944.71 1692.95 1940.93 1693.11 1937.17L1711.39 1505.57C1714.11 1441.48 1766.48 1391.28 1830.61 1391.28H2126.16C2163.27 1391.28 2197.61 1408.08 2220.39 1437.39C2243.16 1466.68 2250.96 1504.12 2241.8 1540.08L2159.75 1862.23C2155.6 1878.53 2155.07 1895.89 2158.24 1912.43L2186.24 2126.67" fill="#100F0D"/>
<path d="M1694.81 2124.71C1704.13 2259.81 1736.75 2800.27 1736.75 2800.27L1640.17 3602.2C1633.93 3654 1663.45 3703.48 1711.99 3722.6L1937.08 3811.28L1862.53 3601.63L2006.96 2800.27C2006.96 2800.27 2003.19 2514.36 2040.8 2361.55C2079.52 2204.19 2103.15 2124.71 2103.15 2124.71H1694.81" fill="white"/>
<path d="M1696.91 2126.67C1706.31 2263.64 1738.37 2794.77 1738.69 2800.15L1642.12 3602.44C1635.99 3653.33 1665.01 3702 1712.71 3720.79L1933.8 3807.88L1860.52 3601.79L1860.61 3601.27L2005.04 2799.92C2004.97 2797.43 2001.67 2512.39 2038.89 2361.08C2073.45 2220.68 2096.23 2141.4 2100.53 2126.67H1696.91ZM1940.36 3814.67L1711.28 3724.43C1661.93 3704.99 1631.89 3654.63 1638.23 3601.97L1734.8 2800.03C1734.47 2794.97 1702.07 2258.4 1692.85 2124.84L1692.72 2122.75H2105.76L2105.01 2125.27C2104.77 2126.05 2080.96 2206.51 2042.69 2362.01C2005.59 2512.83 2008.88 2797.39 2008.92 2800.24L1864.55 3601.45L1940.36 3814.67" fill="#100F0D"/>
<path d="M2033.71 1464.37C2033.48 1464.37 2033.24 1464.37 2033.03 1464.37C1979.39 1463.83 1908.99 1400.87 1908.99 1400.87H2103.15C2103.15 1400.87 2086.8 1464.37 2033.71 1464.37" fill="#C5DDED"/>
<path d="M1702.77 1801.33L1709.11 1651.79L1789.75 1630.83C1809.51 1625.69 1827.15 1615.83 1841.44 1602.16L1702.77 1801.33Z" fill="#C5DDED"/>
<path d="M1700.69 1804.32L1707.13 1652.29L1709.11 1651.79L1702.77 1801.33L1700.69 1804.32" fill="#100F0D"/>
<path d="M1877.41 1232.2C1827.81 1049.8 2011.07 1006.49 2112.68 1080.28C2214.31 1154.05 2111.69 1459.96 2021.2 1430.25C1930.71 1400.53 1904.17 1330.59 1877.41 1232.2" fill="white"/>
<path d="M2005.44 1048.01C1974.48 1048.01 1944.53 1056.05 1920.83 1072.41C1874.77 1104.21 1860.01 1160.77 1879.31 1231.68C1905.52 1328.07 1931.08 1398.6 2021.81 1428.39C2050.63 1437.85 2084.39 1411.07 2112.16 1356.76C2153.99 1274.96 2177.83 1129.99 2111.53 1081.85C2080.67 1059.44 2042.33 1048.01 2005.44 1048.01V1048.01ZM2033.45 1434.17C2029.09 1434.17 2024.8 1433.49 2020.6 1432.11C1928 1401.71 1902.07 1330.28 1875.53 1232.71C1855.77 1160.08 1871.08 1102.01 1918.61 1069.2C1971.84 1032.45 2055.76 1036.53 2113.84 1078.69C2181.88 1128.09 2158.09 1275.52 2115.65 1358.53C2090.85 1407.04 2060.97 1434.17 2033.45 1434.17" fill="#100F0D"/>
<path d="M1717.13 1409.17L1395.59 1537.57C1350.4 1555.63 1332.67 1610.27 1358.65 1651.4L1407.19 1728.21L1789.25 1628.93C1853.01 1612.37 1890.15 1546.07 1870.97 1483.04C1851.21 1418.13 1780.15 1384 1717.13 1409.17Z" fill="white"/>
<path d="M1760.09 1402.89C1745.75 1402.89 1731.4 1405.57 1717.87 1410.99L1396.32 1539.39C1375.32 1547.77 1359.27 1564.92 1352.29 1586.43C1345.31 1607.95 1348.24 1631.24 1360.32 1650.36L1408.08 1725.96L1788.76 1627.04C1819.08 1619.17 1844.2 1599.79 1859.51 1572.45C1874.81 1545.13 1878.21 1513.57 1869.09 1483.61C1859.84 1453.19 1838.09 1427.85 1809.43 1414.09C1793.91 1406.64 1777.01 1402.89 1760.09 1402.89V1402.89ZM1406.29 1730.47L1357 1652.45C1344.31 1632.35 1341.23 1607.84 1348.57 1585.23C1355.91 1562.61 1372.79 1544.57 1394.87 1535.76L1716.41 1407.36L1717.13 1409.17L1716.41 1407.36C1746.96 1395.16 1781.48 1396.33 1811.12 1410.56C1840.77 1424.8 1863.27 1451.01 1872.84 1482.47C1882.27 1513.47 1878.75 1546.09 1862.92 1574.36C1847.09 1602.63 1821.09 1622.68 1789.75 1630.83L1406.29 1730.47Z" fill="#100F0D"/>
<path d="M1403.35 1728.72C1402.76 1728.72 1402.87 1728.53 1404.71 1727.95L1405.08 1728.55C1404.4 1728.64 1403.72 1728.72 1403.35 1728.72Z" fill="#4F97D8"/>
<path d="M1408.08 1725.96L1404.39 1720.12L1355.4 1578.4C1356.03 1577.03 1356.69 1575.68 1357.39 1574.36L1557.23 1475.13L1578.67 1466.57C1576.27 1488.45 1554.57 1667.11 1483.6 1706.33L1408.08 1725.96" fill="#C5DDED"/>
<path d="M1405.08 1728.55L1404.71 1727.95C1405.27 1727.77 1405.97 1727.56 1406.87 1727.31L1407.19 1728.21C1407.19 1728.21 1406.13 1728.4 1405.08 1728.55V1728.55ZM1406.87 1727.31L1404.39 1720.12L1408.08 1725.96L1483.6 1706.33C1478.63 1709.09 1473.41 1711.15 1467.93 1712.43C1430.05 1721.27 1413.45 1725.44 1406.87 1727.31V1727.31ZM1355.4 1578.4L1354.49 1575.79L1357.39 1574.36C1356.69 1575.68 1356.03 1577.03 1355.4 1578.4V1578.4ZM1557.23 1475.13L1578.91 1464.37C1578.91 1464.37 1578.83 1465.13 1578.67 1466.57L1557.23 1475.13" fill="#100F0D"/>
<path d="M1596.19 1138.09L1308.68 1572.28C1274.03 1624.6 1294.91 1695.52 1352.39 1720.72C1405.44 1743.97 1467.15 1717.99 1487.59 1663.79L1676 1164.16L1733.99 1151.8C1762.85 1145.65 1781.41 1117.43 1775.63 1088.48L1770.09 1060.83L1808.96 1046.07C1808.96 1046.07 1832 1099.39 1855.08 1083.41C1878.17 1067.44 1808.96 995.56 1808.96 995.56L1684.69 1046.07L1596.19 1138.09" fill="white"/>
<path d="M1597.72 1139.32L1310.31 1573.36C1294.11 1597.81 1289.58 1627.99 1297.86 1656.12C1306.15 1684.25 1326.31 1707.15 1353.17 1718.92C1378.33 1729.95 1406.13 1730.16 1431.47 1719.49C1456.79 1708.83 1476.07 1688.8 1485.76 1663.09L1674.55 1162.47L1733.59 1149.88C1761.25 1143.99 1779.27 1116.61 1773.71 1088.87L1767.85 1059.6L1810.01 1043.57L1810.75 1045.29C1810.89 1045.63 1825.53 1079.08 1842.32 1083.89C1846.43 1085.05 1850.24 1084.39 1853.97 1081.8C1856.23 1080.24 1857.47 1078.01 1857.77 1075C1859.92 1053.48 1815.43 1005.28 1808.45 997.867L1685.81 1047.72L1597.72 1139.32ZM1392.96 1731.25C1378.93 1731.25 1364.92 1728.35 1351.6 1722.51C1323.68 1710.27 1302.72 1686.47 1294.11 1657.23C1285.5 1627.97 1290.21 1596.63 1307.04 1571.2L1594.67 1136.87L1594.79 1136.73L1683.57 1044.41L1809.45 993.24L1810.36 994.2C1812.56 996.48 1864.16 1050.39 1861.67 1075.39C1861.25 1079.56 1859.41 1082.8 1856.2 1085.01C1851.51 1088.27 1846.48 1089.15 1841.24 1087.65C1824.83 1082.95 1811.27 1055.76 1807.93 1048.55L1772.33 1062.08L1777.55 1088.11C1783.52 1117.95 1764.16 1147.37 1734.4 1153.71L1677.45 1165.84L1489.41 1664.48C1479.35 1691.2 1459.29 1712.01 1432.97 1723.09C1420.05 1728.53 1406.51 1731.25 1392.96 1731.25" fill="#100F0D"/>
<path d="M2362.99 3822L3221.8 3261.85L4080.63 3481.65L3221.8 4036.96L2362.99 3822Z" fill="#E5B779"/>
<path d="M2362.99 3834.55L3221.8 3279.24V2805.05L2362.99 3360.36V3834.55Z" fill="#E5B779"/>
<path d="M2364.93 3361.43V3830.96L3219.85 3278.17V2808.64L2364.93 3361.43ZM2361.03 3838.15V3359.29L2361.92 3358.72L3223.76 2801.45V3280.31L3222.87 3280.88L2361.03 3838.15Z" fill="#100F0D"/>
<path d="M3216.77 4062.28L2357.95 3847.33L2362.99 3363.08L3221.8 3578.03L3216.77 4062.28Z" fill="#F3604D"/>
<path d="M2359.92 3845.81L3214.85 4059.79L3219.84 3579.56L2364.91 3365.57L2359.92 3845.81ZM3218.71 4064.79L3216.31 4064.19L2355.97 3848.85L2356 3847.31L2361.05 3360.57L2363.45 3361.17L3223.77 3576.51L3223.76 3578.05L3218.71 4064.79" fill="#100F0D"/>
<path d="M4080.63 3492.08L3221.8 3277.12V2802.93L4080.63 3017.88V3492.08Z" fill="#F3604D"/>
<path d="M3223.76 3275.6L4078.68 3489.57V3019.41L3223.76 2805.44V3275.6ZM4082.59 3494.57L4080.16 3493.97L3219.85 3278.65V2800.43L3222.28 2801.03L4082.59 3016.36V3494.57" fill="#100F0D"/>
<path d="M3210.28 4053.24L4069.11 3497.93L4080.63 3022.72L3221.8 3578.03L3210.28 4053.24" fill="#E5B779"/>
<path d="M3223.73 3579.11L3212.32 4049.59L4067.17 3496.85L4078.59 3026.37L3223.73 3579.11ZM3208.23 4056.89L3208.32 4053.2L3219.88 3576.95L3220.75 3576.39L4082.68 3019.08L4082.59 3022.77L4071.03 3499.03L4070.16 3499.59L3208.23 4056.89" fill="#100F0D"/>
<path d="M2362.99 3363.08L2194.47 3691.37L3023.6 3910.6L3221.8 3578.03L2362.99 3363.08Z" fill="#F2E3BB"/>
<path d="M2197.32 3690.11L3022.67 3908.33L3218.79 3579.29L2364.01 3365.35L2197.32 3690.11ZM3024.52 3912.87L3023.09 3912.49L2191.61 3692.64L2361.95 3360.8L2363.45 3361.17L3224.83 3576.77L3024.52 3912.87" fill="#100F0D"/>
<path d="M3221.8 3578.03L3516.72 3807.89L4307.65 3285.48L4080.63 3022.72L3221.8 3578.03Z" fill="#F2E3BB"/>
<path d="M3225.17 3578.17L3516.81 3805.49L4304.72 3285.07L4080.27 3025.29L3225.17 3578.17ZM3516.61 3810.31L3218.44 3577.88L3220.75 3576.39L4081 3020.16L4310.59 3285.88L3516.61 3810.31" fill="#100F0D"/>
<path d="M3221.8 2802.93L3441.21 2775.61L4193.96 2976.19L4080.63 3022.72L3221.8 2802.93Z" fill="#F2E3BB"/>
<path d="M3232.29 2803.6L4080.48 3020.67L4187.85 2976.59L3441.07 2777.6L3232.29 2803.6ZM4080.77 3024.79L3211.32 2802.27L3441.35 2773.63L3441.71 2773.73L4200.07 2975.79L4080.77 3024.79Z" fill="#100F0D"/>
<path d="M2362.99 3363.08C2362.99 3363.08 2155.83 3316.69 2195.77 3316.69C2235.71 3316.69 2993.92 2805.05 2993.92 2805.05L3221.8 2802.93L2362.99 3363.08" fill="#F2E3BB"/>
<path d="M2195.61 3318.65C2214.35 3326.41 2304.51 3347.97 2362.6 3360.99L3215.13 2804.95L2994.52 2807C2957.12 2832.24 2235.65 3318.65 2195.76 3318.65H2195.61ZM2363.36 3365.17L2362.55 3364.99C2362.12 3364.89 2318.77 3355.17 2276.08 3344.77C2188.07 3323.32 2188.41 3320.2 2188.72 3317.45C2188.99 3314.95 2192.21 3314.73 2195.76 3314.73C2226.88 3314.73 2730.75 2980.28 2992.83 2803.43L2993.31 2803.09H2993.89L3228.48 2800.92L2363.36 3365.17" fill="#100F0D"/>
<path d="M2137.01 829.174L2131.8 828.707C2115.41 827.24 2103.33 812.76 2104.8 796.374L2121.09 614.974C2122.57 598.6 2137.05 586.507 2153.43 587.974L2158.64 588.454C2175.03 589.92 2187.12 604.4 2185.64 620.774L2169.35 802.174C2167.88 818.56 2153.4 830.654 2137.01 829.174" fill="#F68164"/>
<path d="M2128.21 927.187L2122.99 926.72C2106.61 925.254 2094.52 910.774 2095.99 894.387L2096.47 889.174C2097.93 872.8 2112.41 860.707 2128.79 862.174L2134.01 862.64C2150.39 864.12 2162.48 878.6 2161.01 894.974L2160.53 900.187C2159.07 916.574 2144.59 928.667 2128.21 927.187Z" fill="#F68164"/>
<path d="M2266.11 915.067L2262.45 913.36C2250.96 908.013 2245.99 894.36 2251.35 882.867L2310.63 755.667C2315.99 744.174 2329.64 739.2 2341.13 744.56L2344.79 746.267C2356.27 751.614 2361.24 765.28 2355.89 776.76L2296.61 903.96C2291.25 915.453 2277.6 920.427 2266.11 915.067Z" fill="#F68164"/>
<path d="M2234.08 983.8L2230.41 982.093C2218.93 976.747 2213.96 963.093 2219.31 951.6L2221.01 947.947C2226.37 936.453 2240.03 931.48 2251.52 936.84L2255.17 938.547C2266.65 943.893 2271.63 957.547 2266.28 969.04L2264.57 972.693C2259.21 984.187 2245.56 989.16 2234.08 983.8Z" fill="#F68164"/>
<path d="M636.573 1129.72L590.697 1119.8L592.349 1112.16L638.224 1122.07L636.573 1129.72ZM1034.15 1215.6L682.449 1139.63L684.098 1131.97L1035.8 1207.96L1034.15 1215.6ZM1125.9 1235.43L1080.03 1225.51L1081.68 1217.87L1127.55 1227.77L1125.9 1235.43ZM397.633 1277.64H389.812V1230.71H397.633V1277.64ZM397.633 1684.39H389.812V1324.57H397.633V1684.39ZM397.633 1778.25H389.812V1731.32H397.633V1778.25ZM397.633 2185.01H389.812V2138.08H397.633V2185.01ZM1404.29 2521.01L1404.16 2513.2L1451.08 2512.35L1451.23 2520.17L1404.29 2521.01ZM997.614 2528.37L997.473 2520.56L1357.23 2514.04L1357.37 2521.87L997.614 2528.37ZM903.763 2530.07L903.622 2522.25L950.547 2521.4L950.689 2529.23L903.763 2530.07ZM497.08 2537.43L496.938 2529.61L543.863 2528.76L544.005 2536.57L497.08 2537.43ZM389.812 2539.37V2231.95H397.633V2531.4L450.013 2530.45L450.154 2538.28L389.812 2539.37" fill="white"/>
<path d="M3173.75 1616.09L3173.03 1608.31C3188.4 1606.89 3204.25 1605.93 3220.12 1605.45L3220.36 1613.27C3204.64 1613.75 3188.96 1614.69 3173.75 1616.09V1616.09ZM2834.93 1801.79L2828.05 1798.08C2894.16 1675.05 3026.68 1630.17 3126.2 1614.19L3127.44 1621.91C3029.67 1637.61 2899.55 1681.57 2834.93 1801.79ZM2803.97 1888.72L2796.31 1887.16C2799.51 1871.43 2803.73 1856.05 2808.89 1841.48L2816.27 1844.08C2811.23 1858.32 2807.09 1873.33 2803.97 1888.72ZM2953.92 2241.35C2941.75 2230.39 2930.19 2219.53 2919.56 2209.08L2925.05 2203.49C2935.6 2213.88 2947.07 2224.65 2959.16 2235.53L2953.92 2241.35ZM3277.79 2488.51C3255.49 2472.21 3232.95 2455.95 3210.4 2439.68C3134.6 2384.99 3056.23 2328.43 2989.48 2272.25L2994.51 2266.27C3061.04 2322.25 3139.29 2378.72 3214.97 2433.33C3237.53 2449.6 3260.09 2465.89 3282.4 2482.19L3277.79 2488.51ZM3353.07 2544.6C3341.35 2535.64 3329.08 2526.4 3315.59 2516.36L3320.25 2510.08C3333.79 2520.15 3346.07 2529.41 3357.81 2538.4L3353.07 2544.6ZM3620.97 2841.27C3615.45 2827.19 3608.89 2813.01 3601.47 2799.12L3608.36 2795.44C3615.93 2809.59 3622.63 2824.05 3628.25 2838.43L3620.97 2841.27ZM3520.72 3202.88L3516.19 3196.51C3598.73 3137.8 3644.19 3053.56 3644.19 2959.28C3644.19 2934.99 3641.11 2910.15 3635.04 2885.45L3642.64 2883.59C3648.85 2908.89 3652.01 2934.36 3652.01 2959.28C3652.01 3056.16 3605.39 3142.67 3520.72 3202.88ZM3437.72 3248.12L3434.76 3240.88C3449.32 3234.92 3463.45 3228.24 3476.77 3221.01L3480.51 3227.89C3466.93 3235.25 3452.53 3242.05 3437.72 3248.12" fill="white"/>
<path d="M3376.36 2679.57C3352.41 2665.19 3335.56 2657.08 3335.4 2657.01L3338.77 2649.95C3338.95 2650.03 3356.11 2658.27 3380.39 2672.87L3376.36 2679.57ZM3522.43 3001.75L3516.2 2997C3520.64 2991.19 3524.83 2985.2 3528.64 2979.2C3545.08 2953.33 3553.41 2926.63 3553.41 2899.83C3553.41 2818.65 3478.45 2749.09 3415.57 2705.01L3420.07 2698.61C3484.47 2743.75 3561.24 2815.29 3561.24 2899.83C3561.24 2928.15 3552.49 2956.25 3535.24 2983.4C3531.31 2989.59 3526.99 2995.75 3522.43 3001.75ZM3454.77 3067.85L3450.01 3061.64C3463.17 3051.53 3474.72 3041.65 3485.32 3031.44L3490.75 3037.07C3479.93 3047.49 3468.17 3057.56 3454.77 3067.85ZM3139.73 3311.8L3132.44 3308.97C3138 3294.63 3145.8 3280.61 3155.63 3267.29L3161.92 3271.93C3152.51 3284.69 3145.04 3298.11 3139.73 3311.8V3311.8ZM3125.96 3416.09C3122.77 3400.53 3121.15 3385.39 3121.15 3371.08C3121.15 3365.81 3121.36 3360.57 3121.8 3355.48L3129.59 3356.15C3129.17 3361.01 3128.97 3366.04 3128.97 3371.08C3128.97 3384.85 3130.53 3399.48 3133.63 3414.52L3125.96 3416.09" fill="white"/>
<path d="M3343.36 1603.72L3335.27 1569.05C3334.12 1564.09 3337.19 1559.15 3342.15 1557.99L3396.27 1545.35C3401.23 1544.19 3406.17 1547.27 3407.33 1552.23L3415.43 1586.91C3416.59 1591.85 3413.51 1596.81 3408.55 1597.96L3354.43 1610.6C3349.48 1611.76 3344.52 1608.68 3343.36 1603.72Z" fill="#DB614D"/>
<path d="M3273.91 1626.56L3262.88 1579.32C3261.31 1572.57 3265.51 1565.83 3272.25 1564.25L3341.61 1548.07C3348.36 1546.48 3355.11 1550.68 3356.68 1557.43L3367.71 1604.67C3369.28 1611.41 3365.09 1618.16 3358.35 1619.73L3288.99 1635.92C3282.24 1637.49 3275.49 1633.31 3273.91 1626.56Z" fill="#DB614D"/>
<path d="M3376.73 1577.85C3377.24 1580.07 3402.53 1618.6 3419.67 1644.56C3427.17 1655.93 3420.8 1671.29 3407.24 1674.47C3396.44 1676.99 3385.68 1670.47 3383.21 1659.91L3373.85 1619.79L3357.59 1671.76C3356.39 1675.57 3352.67 1678.09 3348.61 1677.84C3343.71 1677.53 3340.07 1673.29 3340.6 1668.49L3351.39 1582.96L3376.73 1577.85" fill="#DDF0F4"/>
<path d="M3353.15 1584.6L3342.55 1668.73C3342.36 1670.47 3342.88 1672.17 3344.01 1673.53C3345.19 1674.93 3346.87 1675.77 3348.73 1675.89C3351.88 1676.08 3354.79 1674.15 3355.72 1671.17L3374.12 1612.36L3385.12 1659.47C3386.2 1664.05 3389.03 1667.95 3393.12 1670.41C3397.21 1672.91 3402.07 1673.67 3406.8 1672.56C3412.65 1671.19 3417.45 1667.09 3419.64 1661.6C3421.77 1656.24 3421.19 1650.43 3418.03 1645.63C3385.96 1597.05 3377.8 1583.95 3375.64 1580.07L3353.15 1584.6ZM3349.19 1679.81C3348.96 1679.81 3348.72 1679.81 3348.49 1679.8C3345.55 1679.61 3342.89 1678.28 3341.01 1676.05C3339.19 1673.87 3338.35 1671.11 3338.67 1668.28L3349.61 1581.33L3378.2 1575.56L3378.61 1577.32C3379.13 1578.59 3384.45 1587.68 3421.29 1643.48C3425.17 1649.35 3425.89 1656.48 3423.28 1663.04C3420.61 1669.73 3414.79 1674.71 3407.68 1676.36C3401.97 1677.71 3396.07 1676.77 3391.09 1673.76C3386.09 1670.75 3382.63 1665.97 3381.31 1660.36L3373.57 1627.2L3359.45 1672.33C3358.04 1676.83 3353.88 1679.81 3349.19 1679.81" fill="#100F0D"/>
<path d="M3376.37 1576.33C3375.85 1574.12 3381.47 1528.36 3385.33 1497.52C3387.04 1483.97 3374.52 1473.03 3360.96 1476.2C3350.16 1478.72 3343.4 1489.32 3345.87 1499.88L3355.23 1540.01L3317.63 1500.61C3314.87 1497.72 3310.41 1497.09 3306.89 1499.12C3302.63 1501.57 3301.25 1506.99 3303.85 1511.05L3351.39 1582.96L3376.37 1576.33" fill="#DDF0F4"/>
<path d="M3311.35 1499.88C3310.16 1499.88 3308.96 1500.19 3307.87 1500.81C3306.24 1501.75 3305.11 1503.24 3304.68 1505.03C3304.25 1506.75 3304.55 1508.51 3305.49 1510L3352.24 1580.72L3374.43 1574.83C3374.65 1570.35 3376.16 1554.88 3383.4 1497.27C3384.11 1491.57 3382.07 1486.09 3377.79 1482.24C3373.39 1478.28 3367.27 1476.73 3361.4 1478.11C3351.67 1480.37 3345.55 1489.95 3347.77 1499.44L3358.76 1546.55L3316.21 1501.96C3314.92 1500.6 3313.15 1499.88 3311.35 1499.88V1499.88ZM3350.53 1585.21L3302.23 1512.13C3300.67 1509.71 3300.2 1506.87 3300.88 1504.09C3301.57 1501.27 3303.36 1498.89 3305.92 1497.43C3310.25 1494.93 3315.64 1495.69 3319.04 1499.25L3351.69 1533.47L3343.96 1500.32C3341.25 1488.73 3348.68 1477.05 3360.52 1474.29C3367.63 1472.63 3375.05 1474.52 3380.4 1479.33C3385.65 1484.07 3388.16 1490.77 3387.28 1497.76C3381.43 1544.29 3378.08 1573.55 3378.29 1576.01L3378.73 1577.87L3376.87 1578.23L3350.53 1585.21" fill="#100F0D"/>
<path d="M5046.6 811.44H4999.67V803.613H5046.6V811.44ZM5453.35 811.44H5406.41V803.613H5453.35V811.44ZM4802.89 1013.59H4795.07V803.613H4952.73V811.44H4802.89V1013.59ZM4802.89 1107.45H4795.07V1060.52H4802.89V1107.45ZM5526.27 1145.25H5518.45V811.44H5500.28V803.613H5526.27V1145.25ZM5526.27 1239.12H5518.45V1192.19H5526.27V1239.12ZM5021.75 1295.36H4974.81V1287.53H5021.75V1295.36ZM5428.49 1295.36H5068.68V1287.53H5428.49V1295.36ZM5522.36 1295.36H5475.43V1287.53H5522.36V1295.36Z" fill="white"/>
<path d="M5473.55 1251.65H4843.8V853.374H5473.55V1251.65Z" fill="#FFD6C9"/>
<path d="M4855.13 1243.75V1149.77L4985.27 1113.95L5103.67 1149.77L5382.39 1097.83L5462.2 1131.4V1243.75H4855.13Z" fill="#EF6E4B"/>
<path d="M5386.44 981.987C5386.44 1019.27 5356.21 1049.48 5318.93 1049.48C5281.65 1049.48 5251.44 1019.27 5251.44 981.987C5251.44 944.707 5281.65 914.48 5318.93 914.48C5356.21 914.48 5386.44 944.707 5386.44 981.987Z" fill="#EF6E4B"/>
<path d="M5329.35 1156.27L5327.64 1147.89C5312.36 1072.65 5280.48 1017.01 5280.16 1016.45L5283.53 1014.49C5283.85 1015.04 5313.72 1067.13 5329.69 1138.76C5346.32 1068.75 5342.35 1019.15 5317.33 983.107L5320.55 980.867C5347.23 1019.32 5350.69 1072.41 5331.45 1147.99L5329.35 1156.27Z" fill="#100F0D"/>
<path d="M5342.99 1067.36L5340.31 1064.51C5383.99 1023.55 5365.23 999.12 5364.4 998.107L5367.44 995.64C5368.36 996.76 5389.49 1023.75 5342.99 1067.36Z" fill="#100F0D"/>
<path d="M4961.01 932.774C4961.01 953.787 4943.97 970.813 4922.96 970.813C4901.95 970.813 4884.92 953.787 4884.92 932.774C4884.92 911.76 4901.95 894.734 4922.96 894.734C4943.97 894.734 4961.01 911.76 4961.01 932.774Z" fill="white"/>
</svg>
