<?xml version="1.0" standalone="no"?>
<!DOCTYPE svg PUBLIC "-//W3C//DTD SVG 20010904//EN"
 "http://www.w3.org/TR/2001/REC-SVG-20010904/DTD/svg10.dtd">
<svg version="1.0" xmlns="http://www.w3.org/2000/svg"
 width="531.000000pt" height="531.000000pt" viewBox="0 0 531.000000 531.000000"
 preserveAspectRatio="xMidYMid meet">
<metadata>
Created by potrace 1.14, written by Peter Selinger 2001-2017
</metadata>
<g transform="translate(0.000000,531.000000) scale(0.100000,-0.100000)"
fill="#000000" stroke="none">
<path d="M1601 5050 c-95 -35 -193 -104 -315 -222 -76 -74 -83 -80 -174 -156
-35 -28 -56 -52 -47 -52 27 0 61 -46 115 -158 28 -59 55 -116 60 -127 57 -138
189 -408 215 -440 9 -11 54 -78 100 -149 119 -183 199 -276 300 -353 67 -51
179 -106 240 -118 22 -5 43 -9 48 -10 4 -2 42 -3 85 -4 l77 -1 49 -75 48 -75
57 0 56 0 68 94 c62 86 72 95 115 106 26 7 52 16 57 20 6 4 41 24 80 45 183
100 498 358 638 523 120 141 216 370 217 512 0 53 -2 58 -42 97 -24 22 -72 61
-108 87 -36 25 -69 50 -75 54 -26 20 -274 178 -403 256 -121 73 -144 83 -148
68 -64 -193 -245 -313 -474 -314 -163 0 -270 53 -459 231 -156 146 -188 166
-279 176 -32 3 -64 -1 -101 -15z"/>
<path d="M3814 4938 c-59 -28 -229 -358 -184 -358 21 0 123 -74 180 -130 68
-68 100 -129 95 -185 -9 -107 -17 -152 -35 -193 -23 -51 -150 -181 -295 -302
-49 -41 -133 -117 -185 -169 -103 -102 -152 -137 -275 -196 -44 -22 -102 -52
-129 -69 -70 -43 -94 -111 -61 -176 21 -41 44 -44 110 -15 167 74 331 91 382
39 33 -32 -25 -107 -159 -208 -69 -51 -105 -73 -189 -117 -95 -51 -129 -147
-81 -236 18 -33 81 -77 157 -108 178 -72 350 -174 500 -294 96 -78 129 -107
302 -279 214 -210 276 -257 393 -298 51 -18 81 -22 140 -19 41 2 86 7 100 11
28 8 93 51 127 83 12 12 27 21 33 21 5 0 10 3 10 8 0 4 18 30 41 57 56 68 89
126 105 188 63 242 64 786 3 1142 -32 186 -67 297 -156 489 -89 192 -110 311
-83 457 16 84 29 110 50 99 24 -13 29 -5 23 38 -10 65 -8 77 7 77 8 0 14 8 14
18 -1 9 3 18 10 18 6 1 31 3 54 4 50 4 61 10 44 27 -19 19 -14 26 18 33 38 8
38 18 -2 46 -18 13 -39 29 -46 36 -7 7 -22 19 -33 27 -19 13 -20 18 -10 68 6
29 12 63 14 75 2 11 20 38 40 60 34 34 38 42 33 78 -3 22 -5 48 -5 58 -1 9 -6
17 -12 17 -9 0 -74 -52 -159 -127 -31 -29 -40 -29 -40 -1 0 17 -3 19 -12 10
-9 -9 -15 -9 -27 2 -27 23 -84 36 -151 35 -180 -3 -207 -2 -255 15 -94 32
-180 68 -255 105 -91 45 -118 52 -146 39z"/>
<path d="M810 4042 c0 -6 -21 -14 -47 -18 -135 -19 -238 -100 -325 -254 -65
-116 -145 -374 -184 -600 -2 -14 -6 -34 -9 -45 -11 -51 -19 -216 -18 -386 1
-173 3 -221 19 -384 24 -238 86 -365 270 -549 73 -74 189 -166 209 -166 14 0
114 -73 165 -120 114 -105 114 -105 274 -105 155 0 213 12 321 67 49 25 258
160 275 178 3 3 48 37 100 77 124 94 158 126 165 155 5 18 -7 47 -46 114 -67
115 -81 130 -132 139 -23 4 -49 9 -57 11 -8 2 -32 4 -53 6 -69 4 -62 16 63 96
52 34 102 66 110 72 8 5 63 41 121 79 59 39 116 83 127 98 18 26 19 45 20 258
0 262 -1 268 -76 332 -26 23 -57 50 -70 61 -13 11 -41 35 -62 52 -21 17 -49
41 -62 52 -13 11 -48 37 -78 58 -30 21 -201 184 -380 363 -273 272 -331 325
-360 330 -34 7 -101 15 -170 21 -19 2 -52 7 -72 11 -25 5 -38 3 -38 -3z"/>
<path d="M2446 2351 c-7 -9 -18 -25 -24 -37 -6 -12 -26 -39 -44 -61 -18 -21
-46 -57 -63 -78 -27 -35 -73 -89 -117 -139 -21 -23 -22 -28 -22 -115 l-1 -64
-53 -17 c-55 -18 -102 -54 -102 -77 0 -8 -6 -13 -12 -12 -57 7 -101 -27 -112
-85 -4 -20 -10 -35 -14 -35 -45 7 -68 -23 -89 -116 -12 -54 -21 -70 -51 -95
-20 -16 -41 -30 -47 -30 -5 0 -22 -18 -37 -39 -32 -45 -35 -86 -12 -147 15
-40 15 -43 -4 -71 -24 -33 -49 -117 -47 -154 6 -91 44 -151 120 -188 35 -17
39 -23 42 -61 7 -93 87 -209 183 -267 79 -47 197 -64 287 -40 29 8 54 11 55 7
2 -4 24 -23 50 -42 124 -95 325 -99 468 -10 l50 31 45 -48 c24 -26 68 -61 97
-76 45 -25 64 -29 124 -29 61 0 78 4 114 28 48 32 57 33 130 11 136 -40 316 1
392 89 37 42 69 117 74 173 2 31 5 57 7 58 1 1 39 21 84 45 220 116 266 265
139 454 -39 59 -42 67 -30 85 26 36 28 103 6 150 l-21 42 27 10 c15 6 38 21
52 34 14 13 40 27 59 30 48 8 69 21 86 55 19 37 19 50 -3 75 -26 31 -68 45
-113 40 -45 -6 -44 -7 -112 82 -74 97 -191 165 -308 179 -50 6 -76 24 -110 76
-3 5 -28 17 -55 27 -48 19 -103 21 -155 7 -21 -6 -33 -2 -55 19 -38 36 -119
76 -154 77 -24 1 -30 7 -38 37 -12 43 -31 97 -45 128 -18 39 -83 55 -229 58
-73 1 -149 8 -168 14 -83 28 -224 35 -244 12z m337 -109 c7 -15 18 -36 24 -47
6 -11 15 -34 21 -52 9 -29 8 -32 -17 -43 -15 -6 -38 -21 -52 -34 l-24 -23 -39
19 c-23 12 -52 18 -71 16 -26 -3 -32 -1 -27 12 18 47 148 194 163 184 4 -2 14
-17 22 -32z"/>
</g>
</svg>
